<svg xmlns="http://www.w3.org/2000/svg" xml:space="preserve" id="Layer_1" x="0" y="0" style="enable-background:new 0 0 90 61.5" version="1.1" viewBox="0 0 90 61.5"><style>.st0{fill:#fff}</style><path d="M24.4 32H4.2C1.9 32 0 33.9 0 36.2v21.1c0 2.3 1.9 4.2 4.2 4.2h20.2c2.3 0 4.2-1.9 4.2-4.2V36.2c0-2.3-1.9-4.2-4.2-4.2zm-4.1 1.8c1.6 0 2.9 1.3 2.9 2.9v15.8c0 1.6-1.3 2.9-2.9 2.9H8.1c-1.6 0-2.9-1.3-2.9-2.9V36.8c0-1.6 1.3-2.9 2.9-2.9h12.2zM.7 36.2c0-2 1.6-3.5 3.5-3.5h17.9l-1.9.5H8.1c-2 0-3.6 1.6-3.6 3.6v15.6L.7 56.5V36.2zM55.1 32H34.9c-2.3 0-4.2 1.9-4.2 4.2v21.1c0 2.3 1.9 4.2 4.2 4.2h20.2c2.3 0 4.2-1.9 4.2-4.2V36.2c0-2.3-1.9-4.2-4.2-4.2zm-4.2 1.8c1.6 0 2.9 1.3 2.9 2.9v15.8c0 1.6-1.3 2.9-2.9 2.9H38.8c-1.6 0-2.9-1.3-2.9-2.9V36.8c0-1.6 1.3-2.9 2.9-2.9h12.1zm-19.5 2.4c0-2 1.6-3.5 3.5-3.5h17.9l-1.9.5H38.8c-2 0-3.6 1.6-3.6 3.6v15.6l-3.8 4.1V36.2zM55.1 0H34.9c-2.3 0-4.2 1.9-4.2 4.2v21.1c0 2.3 1.9 4.2 4.2 4.2h20.2c2.3 0 4.2-1.9 4.2-4.2V4.2c0-2.3-1.9-4.2-4.2-4.2zm-4.2 1.8c1.6 0 2.9 1.3 2.9 2.9v15.8c0 1.6-1.3 2.9-2.9 2.9H38.8c-1.6 0-2.9-1.3-2.9-2.9V4.8c0-1.6 1.3-2.9 2.9-2.9h12.1zM31.4 4.2c0-2 1.6-3.5 3.5-3.5h17.9l-1.9.5H38.8c-2 0-3.6 1.6-3.6 3.6v15.6l-3.8 4.1V4.2zM85.8 32H65.6c-2.3 0-4.2 1.9-4.2 4.2v21.1c0 2.3 1.9 4.2 4.2 4.2h20.2c2.3 0 4.2-1.9 4.2-4.2V36.2c0-2.3-1.9-4.2-4.2-4.2zm-4.2 1.8c1.6 0 2.9 1.3 2.9 2.9v15.8c0 1.6-1.3 2.9-2.9 2.9H69.4c-1.6 0-2.9-1.3-2.9-2.9V36.8c0-1.6 1.3-2.9 2.9-2.9h12.2zM62 36.2c0-2 1.6-3.5 3.5-3.5h17.9l-1.9.5H69.4c-2 0-3.6 1.6-3.6 3.6v15.6L62 56.5V36.2z" class="st0"/><path d="M39.6 12.2h1.8v6h.8v-6H44l-2.2-3.8zM11.5 43.2l-3.8 2.2 3.8 2.2v-1.9h6V45h-6zM42.2 40.5h-.8v6h-1.8l2.2 3.7 2.2-3.7h-1.8zM74.5 45h-6v.7h6v1.9l3.8-2.2-3.8-2.2z" class="st0"/><path d="M74.5 47.6v-1.8h-5.9V45h5.9v-1.8l3.8 2.2-3.8 2.2zM41.8 50.2l-2.2-3.8h1.8v-5.9h.7v5.9H44l-2.2 3.8zM17.5 45.7h-5.9v1.8l-3.8-2.2 3.8-2.2V45h5.9v.7zM42.2 12.2v5.9h-.7v-5.9h-1.8l2.2-3.8 2.2 3.8h-1.9z" class="st0"/></svg>