<?xml version="1.0" standalone="no"?>
<!DOCTYPE svg PUBLIC "-//W3C//DTD SVG 20010904//EN"
 "http://www.w3.org/TR/2001/REC-SVG-20010904/DTD/svg10.dtd">
<svg version="1.0" xmlns="http://www.w3.org/2000/svg"
 width="260.000000pt" height="260.000000pt" viewBox="0 0 260.000000 260.000000"
 preserveAspectRatio="xMidYMid meet">
<metadata>
Created by potrace 1.11, written by Peter Selinger 2001-2013
</metadata>
<g transform="translate(0.000000,260.000000) scale(0.100000,-0.100000)"
fill="#000000" stroke="none">
<path d="M1450 2146 c0 -2 -82 -237 -181 -523 -100 -285 -199 -567 -219 -628
-67 -193 -178 -509 -185 -527 -7 -17 4 -18 138 -18 l145 0 30 88 c17 48 65
186 107 307 42 121 97 276 120 345 24 69 74 211 110 315 37 105 100 285 140
400 40 116 76 218 80 228 7 16 -4 17 -139 17 -80 0 -146 -2 -146 -4z"/>
</g>
</svg>
