<?xml version="1.0" standalone="no"?>
<!DOCTYPE svg PUBLIC "-//W3C//DTD SVG 20010904//EN"
 "http://www.w3.org/TR/2001/REC-SVG-20010904/DTD/svg10.dtd">
<svg version="1.0" xmlns="http://www.w3.org/2000/svg"
 width="260.000000pt" height="260.000000pt" viewBox="0 0 260.000000 260.000000"
 preserveAspectRatio="xMidYMid meet">
<metadata>
Created by potrace 1.11, written by Peter Selinger 2001-2013
</metadata>
<g transform="translate(0.000000,260.000000) scale(0.100000,-0.100000)"
fill="#000000" stroke="none">
<path d="M1559 2563 c-6 -16 -58 -163 -116 -328 -58 -165 -132 -376 -165 -470
-33 -93 -75 -213 -93 -265 -43 -124 -129 -368 -310 -885 -179 -511 -205 -585
-205 -593 0 -4 81 -7 179 -7 l180 0 39 115 c22 63 66 187 97 275 31 88 76 216
100 285 72 207 121 346 180 515 31 88 72 203 90 255 28 81 191 547 349 995 25
72 46 131 46 133 0 1 -81 2 -180 2 l-180 0 -11 -27z"/>
</g>
</svg>
