<?xml version="1.0" standalone="no"?>
<!DOCTYPE svg PUBLIC "-//W3C//DTD SVG 20010904//EN"
 "http://www.w3.org/TR/2001/REC-SVG-20010904/DTD/svg10.dtd">
<svg version="1.0" xmlns="http://www.w3.org/2000/svg"
 width="16.000000pt" height="16.000000pt" viewBox="0 0 16.000000 16.000000"
 preserveAspectRatio="xMidYMid meet">
<metadata>
Created by potrace 1.11, written by Peter Selinger 2001-2013
</metadata>
<g transform="translate(0.000000,16.000000) scale(0.004000,-0.004000)"
fill="#000000" stroke="none">
<path d="M1196 2859 c-20 -23 -26 -42 -27 -77 0 -26 -1 -348 -2 -717 -2 -619
-3 -672 -20 -702 -23 -42 -64 -63 -126 -63 -64 0 -79 -6 -97 -42 -37 -71 16
-120 127 -119 168 0 271 84 298 240 6 31 10 278 10 556 0 275 0 518 0 539 l1
40 68 -97 c37 -53 132 -191 212 -307 281 -407 292 -422 327 -437 55 -23 86 0
171 125 40 59 133 195 207 302 74 107 167 243 207 302 40 60 76 108 79 108 4
0 7 -278 7 -617 0 -340 1 -635 1 -656 1 -29 9 -46 30 -68 40 -40 89 -40 133 0
l32 29 1 798 c1 447 -3 811 -8 827 -5 15 -21 36 -35 46 -35 24 -112 23 -140
-2 -10 -10 -160 -229 -333 -487 -173 -258 -316 -469 -319 -469 -3 0 -30 37
-60 82 -30 45 -59 86 -63 92 -5 5 -128 181 -273 390 -146 209 -274 388 -285
398 -12 9 -38 17 -59 17 -30 0 -44 -6 -64 -31z"/>
</g>
</svg>
