<?xml version="1.0" standalone="no"?>
<!DOCTYPE svg PUBLIC "-//W3C//DTD SVG 20010904//EN"
 "http://www.w3.org/TR/2001/REC-SVG-20010904/DTD/svg10.dtd">
<svg version="1.0" xmlns="http://www.w3.org/2000/svg"
 width="750.000000pt" height="750.000000pt" viewBox="0 0 750.000000 750.000000"
 preserveAspectRatio="xMidYMid meet">
<metadata>
Created by potrace 1.14, written by Peter Selinger 2001-2017
</metadata>
<g transform="translate(0.000000,750.000000) scale(0.100000,-0.100000)"
fill="#000000" stroke="none">
<path d="M3558 6365 c-2 -2 -39 -6 -83 -9 -44 -4 -87 -9 -95 -11 -16 -4 -37
-8 -110 -20 -25 -4 -72 -14 -105 -22 -33 -8 -68 -17 -77 -19 -42 -9 -56 -14
-118 -34 -212 -68 -415 -161 -602 -277 -77 -47 -244 -165 -258 -182 -3 -3 -34
-31 -70 -61 -258 -216 -507 -542 -659 -865 -93 -197 -176 -454 -206 -635 -3
-19 -10 -60 -15 -90 -25 -146 -34 -481 -17 -655 22 -227 116 -604 182 -731 8
-16 15 -32 15 -36 0 -14 87 -189 138 -278 261 -455 654 -823 1127 -1054 253
-123 478 -193 765 -237 200 -31 550 -33 750 -4 378 53 745 191 1065 400 496
324 855 785 1059 1362 28 79 90 331 101 406 3 27 8 59 11 70 19 98 26 490 12
630 -6 57 -27 188 -42 262 -30 152 -93 355 -153 495 -29 68 -134 273 -153 300
-11 16 -20 31 -20 34 0 9 -94 149 -149 221 -150 197 -363 406 -563 552 -121
88 -342 214 -478 272 -30 12 -68 29 -85 36 -46 20 -234 83 -285 95 -25 6 -52
12 -60 14 -83 22 -187 42 -270 51 -25 3 -76 10 -115 14 -63 8 -430 13 -437 6z"/>
</g>
</svg>
