
      <svg data-logo="logo" xmlns="http://www.w3.org/2000/svg" viewBox="0 0 317 44">
        <g id="logogram" transform="translate(0, 1.5) rotate(0) "><path fill-rule="evenodd" clip-rule="evenodd" d="M11.1558 6.10598C17.9205 2.44936 27.2385 0.199982 37.5089 0.199982C47.7794 0.199982 57.0973 2.44936 63.8621 6.10598C70.6109 9.75399 74.9089 14.8603 74.9089 20.6C74.9089 26.3397 70.6109 31.4461 63.8621 35.094C57.0973 38.7506 47.7794 41 37.5089 41C27.2385 41 17.9205 38.7506 11.1558 35.094C4.40695 31.4461 0.108887 26.3397 0.108887 20.6C0.108887 14.8603 4.40695 9.75399 11.1558 6.10598ZM11.5362 6.80975C4.89359 10.4003 0.908887 15.294 0.908887 20.6C0.908887 25.906 4.89359 30.7997 11.5362 34.3903C15.1162 36.3254 19.442 37.8653 24.2656 38.8722C19.9024 37.8853 15.9723 36.4245 12.6827 34.6013C6.32272 31.0765 2.2736 26.143 2.2736 20.6C2.2736 15.0571 6.32272 10.1235 12.6827 6.59868C15.9729 4.77522 19.9038 3.31418 24.268 2.32729C19.4434 3.3342 15.1168 4.87429 11.5362 6.80975ZM50.7495 2.3272C55.1137 3.3141 59.0447 4.77517 62.335 6.59868C68.6951 10.1235 72.7442 15.0571 72.7442 20.6C72.7442 26.143 68.6951 31.0765 62.335 34.6013C59.0453 36.4245 55.1152 37.8854 50.7519 38.8723C55.5756 37.8654 59.9016 36.3255 63.4817 34.3903C70.1242 30.7997 74.1089 25.906 74.1089 20.6C74.1089 15.294 70.1242 10.4003 63.4817 6.80975C59.901 4.87424 55.5742 3.33411 50.7495 2.3272ZM13.0705 7.29841C6.82266 10.761 3.0736 15.4805 3.0736 20.6C3.0736 25.7195 6.82266 30.439 13.0705 33.9016C16.5088 35.8072 20.6788 37.3156 25.3322 38.2853C21.141 37.3329 17.3681 35.9025 14.2201 34.1082C8.25151 30.7063 4.45366 25.9455 4.45366 20.5999C4.45366 15.2543 8.25151 10.4935 14.2201 7.09159C17.3645 5.2994 21.1323 3.8702 25.3176 2.91777C20.6701 3.88759 16.5053 5.39485 13.0705 7.29841ZM49.7002 2.91779C53.8856 3.87021 57.6533 5.2994 60.7977 7.09159C66.7663 10.4935 70.5641 15.2543 70.5641 20.5999C70.5641 25.9455 66.7663 30.7063 60.7977 34.1082C57.6496 35.9025 53.8768 37.3329 49.6856 38.2853C54.3389 37.3156 58.5089 35.8072 61.9472 33.9016C68.1951 30.439 71.9442 25.7195 71.9442 20.6C71.9442 15.4805 68.1951 10.761 61.9472 7.29841C58.5125 5.39486 54.3477 3.8876 49.7002 2.91779ZM14.6162 7.78663C8.76594 11.1211 5.25366 15.6663 5.25366 20.5999C5.25366 25.5335 8.76594 30.0787 14.6162 33.4132C17.8876 35.2777 21.8666 36.7477 26.3095 37.68C22.3258 36.7626 18.7411 35.3693 15.7571 33.6148C10.1799 30.3356 6.63383 25.7475 6.63383 20.5998C6.63383 15.4521 10.1799 10.864 15.7571 7.58486C18.74 5.83101 22.3231 4.43809 26.305 3.52071C21.864 4.45302 17.8865 5.92269 14.6162 7.78663ZM48.7143 3.52101C52.6957 4.4384 56.2783 5.83121 59.2609 7.58486C64.838 10.864 68.384 15.4521 68.384 20.5998C68.384 25.7475 64.838 30.3356 59.2609 33.6148C56.2771 35.3691 52.693 36.7623 48.7098 37.6797C53.152 36.7474 57.1305 35.2775 60.4015 33.4132C66.2518 30.0787 69.7641 25.5335 69.7641 20.5999C69.7641 15.6663 66.2518 11.1211 60.4015 7.78663C57.1316 5.92289 53.1547 4.45335 48.7143 3.52101ZM16.1625 8.27449C10.7099 11.4805 7.43383 15.8515 7.43383 20.5998C7.43383 25.348 10.7099 29.7191 16.1625 32.9251C19.2605 34.7466 23.0394 36.1768 27.2613 37.0711C23.4949 36.1891 20.107 34.8341 17.2933 33.1213C12.1076 29.9645 8.81389 25.5494 8.81389 20.6002C8.81389 15.651 12.1076 11.2358 17.2933 8.07904C20.1144 6.36172 23.5126 5.00415 27.2909 4.12231C23.0571 5.01619 19.2677 6.44878 16.1625 8.27449ZM47.7261 4.12212C51.5047 5.00396 54.9032 6.3616 57.7245 8.07904C62.9102 11.2358 66.2039 15.651 66.2039 20.6002C66.2039 25.5494 62.9102 29.9645 57.7245 33.1213C54.9106 34.8342 51.5225 36.1893 47.7557 37.0713C51.978 36.177 55.7573 34.7467 58.8554 32.9251C64.308 29.7191 67.584 25.3481 67.584 20.5998C67.584 15.8515 64.308 11.4805 58.8554 8.27449C55.75 6.44865 51.9603 5.01599 47.7261 4.12212ZM17.7093 8.76238C12.6542 11.8396 9.61389 16.0366 9.61389 20.6002C9.61389 25.1637 12.6542 29.3607 17.7093 32.4379C20.6393 34.2216 24.2268 35.6147 28.2373 36.4696C24.6781 35.6237 21.4783 34.3038 18.8289 32.6268C14.0347 29.5921 10.9939 25.35 10.9939 20.6C10.9939 15.85 14.0347 11.6079 18.8289 8.57323C21.4754 6.89806 24.6711 5.57926 28.2255 4.7332C24.2197 5.5884 20.6365 6.98049 17.7093 8.76238ZM46.7924 4.7332C50.3468 5.57927 53.5425 6.89806 56.1889 8.57323C60.9831 11.6079 64.0239 15.85 64.0239 20.6C64.0239 25.35 60.9831 29.5921 56.1889 32.6268C53.5396 34.3038 50.3397 35.6237 46.7806 36.4696C50.7911 35.6146 54.3785 34.2216 57.3085 32.4379C62.3636 29.3607 65.404 25.1637 65.404 20.6002C65.404 16.0366 62.3636 11.8396 57.3085 8.76238C54.3814 6.9805 50.7981 5.58841 46.7924 4.7332ZM19.2568 9.2492C14.5992 12.1974 11.7939 16.2205 11.7939 20.6C11.7939 24.9796 14.5992 29.0027 19.2568 31.9508C21.8849 33.6144 25.0873 34.9237 28.6649 35.7481C25.5321 34.9336 22.7123 33.6981 20.3635 32.1425C15.961 29.2268 13.174 25.154 13.174 20.6C13.174 16.046 15.961 11.9732 20.3635 9.05746C22.7119 7.50217 25.5312 6.26684 28.6633 5.45228C25.0864 6.27671 21.8845 7.58584 19.2568 9.2492ZM46.3546 5.45229C49.4867 6.26685 52.306 7.50217 54.6543 9.05746C59.0568 11.9732 61.8438 16.046 61.8438 20.6C61.8438 25.154 59.0568 29.2268 54.6543 32.1425C52.3056 33.6981 49.4857 34.9336 46.353 35.7481C49.9305 34.9237 53.1329 33.6144 55.7611 31.9508C60.4186 29.0027 63.2239 24.9796 63.2239 20.6C63.2239 16.2205 60.4186 12.1974 55.7611 9.2492C53.1333 7.58585 49.9315 6.27672 46.3546 5.45229ZM20.8053 9.72445C16.545 12.546 13.974 16.3992 13.974 20.6C13.974 24.8008 16.545 28.654 20.8053 31.4755C23.3773 33.179 26.5506 34.4945 30.1024 35.2691C26.9911 34.4959 24.1963 33.2484 21.8972 31.6464C17.8868 28.8521 15.3541 24.9529 15.3541 20.5999C15.3541 16.2469 17.8868 12.3477 21.8972 9.55333C24.1942 7.95288 26.9858 6.70617 30.0936 5.93278C26.5453 6.70764 23.3751 8.02244 20.8053 9.72445ZM44.9232 5.93254C48.0314 6.70591 50.8233 7.95271 53.1205 9.55333C57.1309 12.3477 59.6636 16.2469 59.6636 20.5999C59.6636 24.9529 57.1309 28.8521 53.1205 31.6464C50.8211 33.2486 48.0261 34.4962 44.9143 35.2694C48.4666 34.4948 51.6403 33.1791 54.2126 31.4755C58.4728 28.654 61.0438 24.8008 61.0438 20.6C61.0438 16.3992 58.4728 12.546 54.2126 9.72445C51.6424 8.02227 48.4719 6.70737 44.9232 5.93254ZM22.3546 10.2097C18.4913 12.9015 16.1541 16.5813 16.1541 20.5999C16.1541 24.6185 18.4913 28.2983 22.3546 30.99C24.7274 32.6434 27.6647 33.914 30.9538 34.648C28.0938 33.9113 25.5257 32.7052 23.419 31.1496C19.7984 28.4764 17.5188 24.7512 17.5188 20.6002C17.5188 16.4492 19.7984 12.7239 23.419 10.0507C25.5303 8.49181 28.1048 7.28381 30.9723 6.54756C27.6757 7.28094 24.7319 8.55324 22.3546 10.2097ZM44.0446 6.5474C46.9124 7.28363 49.4871 8.49169 51.5987 10.0507C55.2192 12.7239 57.4989 16.4492 57.4989 20.6002C57.4989 24.7512 55.2192 28.4764 51.5987 31.1496C49.4917 32.7053 46.9235 33.9115 44.0631 34.6482C47.3526 33.9142 50.2901 32.6435 52.6631 30.99C56.5264 28.2983 58.8636 24.6185 58.8636 20.5999C58.8636 16.5813 56.5264 12.9015 52.6631 10.2097C50.2856 8.55312 47.3416 7.28076 44.0446 6.5474ZM23.8941 10.6943C20.4245 13.2561 18.3188 16.7629 18.3188 20.6002C18.3188 24.4375 20.4245 27.9443 23.8941 30.5061C26.1001 32.1348 28.8487 33.3734 31.9289 34.0595C24.8681 32.2066 19.699 26.931 19.699 20.6001C19.699 14.2697 24.8675 8.99435 31.9275 7.14116C28.8479 7.82736 26.0997 9.0658 23.8941 10.6943ZM43.0917 7.14151C50.1511 8.99502 55.3189 14.2702 55.3189 20.6001C55.3189 26.9306 50.1504 32.206 43.0903 34.0592C46.1698 33.3729 48.9179 32.1345 51.1235 30.5061C54.5931 27.9443 56.6989 24.4375 56.6989 20.6002C56.6989 16.7629 54.5931 13.2561 51.1235 10.6943C48.9183 9.06608 46.1706 7.82779 43.0917 7.14151ZM32.7932 7.7491C25.6456 9.36513 20.499 14.5607 20.499 20.6001C20.499 26.6413 25.6486 31.8382 32.7994 33.4526C26.497 31.7361 21.879 26.6652 21.879 20.6C21.879 14.5368 26.4939 9.4672 32.7932 7.7491ZM42.2247 7.74911C48.524 9.46722 53.1388 14.5368 53.1388 20.6C53.1388 26.6652 48.521 31.7361 42.2185 33.4526C49.3693 31.8382 54.5189 26.6413 54.5189 20.6001C54.5189 14.5608 49.3723 9.36514 42.2247 7.74911ZM33.5755 8.37334C27.263 9.85209 22.679 14.8027 22.679 20.6C22.679 26.3977 27.2635 31.3485 33.5767 32.8269C28.0767 31.2306 24.0591 26.3726 24.0591 20.6C24.0591 14.8276 28.0762 9.97 33.5755 8.37334ZM41.4417 8.37321C46.9413 9.96972 50.9587 14.8274 50.9587 20.6C50.9587 26.3728 46.9408 31.2309 41.4406 32.8271C47.7541 31.3488 52.3388 26.3979 52.3388 20.6C52.3388 14.8025 47.7547 9.85178 41.4417 8.37321ZM37.5089 8.61755C30.5026 8.61755 24.8591 14.0017 24.8591 20.6C24.8591 27.1981 30.5026 32.5824 37.5089 32.5824C44.5152 32.5824 50.1587 27.1981 50.1587 20.6C50.1587 14.0017 44.5152 8.61755 37.5089 8.61755Z" fill="white"/></g>
        <g id="logotype" transform="translate(81, 1)"><path fill="#ffffff" d="M15.28 21.24L15.28 21.24Q15.28 23.38 15.82 25.38Q16.36 27.37 17.52 29.16L17.52 29.16Q18.53 30.73 20.05 31.92Q21.58 33.11 23.40 33.67L23.40 33.67Q25.29 34.30 27.35 34.30L27.35 34.30Q30.75 34.30 33.34 32.73L33.34 32.73Q35.89 31.15 37.26 28.38L37.26 28.38Q37.57 27.72 37.81 26.97Q38.06 26.21 38.24 25.41L38.24 25.41L46.64 25.41Q46.36 28.45 45.25 30.94Q44.15 33.42 42.44 35.49L42.44 35.49Q38.83 39.83 33.27 41.51L33.27 41.51Q30.47 42.35 27.42 42.35L27.42 42.35Q24.38 42.35 21.28 41.41Q18.18 40.46 15.28 38.29L15.28 38.29Q12.72 36.40 10.87 33.69Q9.01 30.98 8.07 27.89L8.07 27.89Q7.58 26.32 7.31 24.64Q7.05 22.96 7.05 21.17L7.05 21.17Q7.05 17.53 8.08 14.37Q9.12 11.20 10.90 8.61L10.90 8.61Q12.89 5.77 15.56 3.87Q18.22 1.96 20.88 1.05L20.88 1.05Q22.42 0.56 24.06 0.28Q25.71-0.00 27.42-0.00L27.42-0.00Q33.44-0.00 38.34 3.18L38.34 3.18Q40.69 4.72 42.47 6.88Q44.26 9.03 45.31 11.48L45.31 11.48Q46.36 14.00 46.64 16.94L46.64 16.94L38.24 16.94Q37.95 15.36 37.24 13.95Q36.52 12.53 35.58 11.48L35.58 11.48Q34.59 10.43 33.34 9.64Q32.08 8.85 30.57 8.43L30.57 8.43Q29.00 8.05 27.35 8.05L27.35 8.05Q25.11 8.05 23.26 8.73Q21.40 9.41 20.07 10.43L20.07 10.43Q17.02 12.84 15.87 16.87L15.87 16.87Q15.56 17.88 15.42 18.99Q15.28 20.09 15.28 21.24ZM57.31 42L49.44 42L49.44 11.55L57.31 11.55L57.31 42ZM49.02 4.86L49.02 4.86Q49.02 3.36 49.86 2.17L49.86 2.17Q50.21 1.61 50.78 1.19Q51.36 0.77 51.99 0.59L51.99 0.59Q52.66 0.38 53.39 0.38L53.39 0.38Q54.09 0.38 54.76 0.58Q55.42 0.77 56.02 1.19L56.02 1.19Q57.14 2.03 57.56 3.39L57.56 3.39Q57.77 4.09 57.77 4.86L57.77 4.86Q57.77 6.79 56.54 8.12L56.54 8.12Q55.32 9.45 53.39 9.45L53.39 9.45Q51.89 9.45 50.80 8.57L50.80 8.57Q50.24 8.15 49.86 7.61Q49.47 7.07 49.23 6.30L49.23 6.30Q49.02 5.63 49.02 4.86ZM60.81 42L60.81 11.55L68.69 11.55Q68.69 11.69 68.62 12.13Q68.55 12.56 68.44 12.81L68.44 12.81Q68.30 13.19 68.16 13.58Q68.02 13.96 67.74 14.49L67.74 14.49Q67.64 14.70 67.53 14.89Q67.42 15.08 67.28 15.29L67.28 15.29L67.70 15.64Q68.37 14.66 68.97 14.05Q69.56 13.44 70.30 12.84L70.30 12.84Q70.96 12.32 71.77 11.93Q72.57 11.55 73.34 11.37L73.34 11.37Q73.73 11.30 74.13 11.25Q74.53 11.20 74.95 11.20L74.95 11.20Q76 11.20 77.03 11.53Q78.06 11.86 78.84 12.53L78.84 12.53Q80.38 13.93 80.87 16.45L80.87 16.45Q80.97 17.08 81.04 17.78Q81.11 18.48 81.11 19.25L81.11 19.25L81.11 42L73.23 42L73.23 20.65Q73.23 20.23 73.17 20.00Q73.09 19.77 72.89 19.39L72.89 19.39Q72.75 19.18 72.47 19.00Q72.19 18.83 71.98 18.79L71.98 18.79Q71.63 18.72 71.34 18.72L71.34 18.72Q71.06 18.72 70.82 18.78Q70.58 18.83 70.30 18.90L70.30 18.90Q69.98 18.97 69.77 19.09Q69.56 19.21 69.21 19.39L69.21 19.39Q69.07 19.46 68.95 19.55Q68.83 19.63 68.69 19.74L68.69 19.74L68.69 42L60.81 42ZM112.78 26.67L112.78 26.67L112.78 29.23L91.50 29.23Q91.72 30.27 92.19 31.17Q92.66 32.06 93.25 32.69L93.25 32.69Q93.92 33.39 94.66 33.84Q95.39 34.30 96.44 34.55L96.44 34.55Q96.89 34.69 97.40 34.75Q97.91 34.83 98.47 34.83L98.47 34.83Q100.15 34.83 101.55 34.27L101.55 34.27Q102.95 33.70 103.83 32.69L103.83 32.69Q104.03 32.45 104.21 32.16Q104.39 31.88 104.53 31.60L104.53 31.60L112.54 31.60Q112.05 33.77 111.11 35.38Q110.16 36.99 109.00 38.08L109.00 38.08Q107.67 39.41 106.01 40.35Q104.35 41.30 102.39 41.83L102.39 41.83Q101.44 42.07 100.43 42.21Q99.42 42.35 98.36 42.35L98.36 42.35Q95.67 42.35 93.48 41.56Q91.30 40.77 89.58 39.45L89.58 39.45Q85.83 36.58 84.44 31.78L84.44 31.78Q83.73 29.40 83.73 26.67L83.73 26.67Q83.73 24.04 84.47 21.63Q85.20 19.21 86.53 17.32L86.53 17.32Q87.90 15.40 89.74 14.03Q91.58 12.67 93.78 11.93L93.78 11.93Q96.02 11.20 98.44 11.20L98.44 11.20Q100.78 11.20 103.02 11.99Q105.26 12.77 106.97 14.17L106.97 14.17Q108.76 15.64 110.07 17.53Q111.39 19.42 112.09 21.80L112.09 21.80Q112.78 24.11 112.78 26.67ZM91.64 23.97L91.64 23.97L105.05 23.97Q104.49 22.12 103.16 20.79L103.16 20.79Q101.87 19.49 100.12 18.97L100.12 18.97Q99.66 18.86 99.20 18.79Q98.75 18.72 98.26 18.72L98.26 18.72Q96.47 18.72 94.83 19.67L94.83 19.67Q94.23 20.02 93.59 20.65Q92.94 21.28 92.42 22.22L92.42 22.22Q91.92 23.10 91.64 23.97ZM113.13 11.55L121.01 11.55L123.50 27.23Q123.63 28.03 123.76 29.03Q123.88 30.03 123.95 30.98L123.95 30.98Q124.02 31.88 124.09 32.88Q124.16 33.88 124.23 34.93L124.23 34.93Q124.23 35.42 124.23 35.88L124.23 35.88L124.23 36.75L124.79 36.75Q124.79 35.91 124.84 34.86Q124.89 33.81 125 32.97L125 32.97Q125.07 32.20 125.21 31.01Q125.35 29.82 125.45 29.02L125.45 29.02Q125.53 28.56 125.59 28.10Q125.66 27.65 125.73 27.23L125.73 27.23L128.19 11.55L135.88 11.55L130.00 42L119.02 42L113.13 11.55ZM145.86 42L137.99 42L137.99 11.55L145.86 11.55L145.86 42ZM137.57 4.86L137.57 4.86Q137.57 3.36 138.41 2.17L138.41 2.17Q138.76 1.61 139.33 1.19Q139.91 0.77 140.54 0.59L140.54 0.59Q141.21 0.38 141.94 0.38L141.94 0.38Q142.64 0.38 143.31 0.58Q143.97 0.77 144.57 1.19L144.57 1.19Q145.69 2.03 146.11 3.39L146.11 3.39Q146.32 4.09 146.32 4.86L146.32 4.86Q146.32 6.79 145.09 8.12L145.09 8.12Q143.87 9.45 141.94 9.45L141.94 9.45Q140.44 9.45 139.35 8.57L139.35 8.57Q138.79 8.15 138.41 7.61Q138.02 7.07 137.78 6.30L137.78 6.30Q137.57 5.63 137.57 4.86ZM167.39 20.65L160.56 20.65L160.56 19.32Q160.56 17.67 158.50 17.67L158.50 17.67Q156.71 17.67 156.71 19.39L156.71 19.39Q156.71 19.56 156.75 19.76Q156.78 19.95 156.99 20.23L156.99 20.23Q157.20 20.58 157.66 21.05Q158.11 21.52 158.81 22.12L158.81 22.12Q159.16 22.43 159.63 22.82Q160.11 23.20 160.70 23.63L160.70 23.63Q162.63 25.13 163.82 26.11Q165.01 27.09 166.09 28.24L166.09 28.24Q166.90 29.12 167.46 30.08Q168.02 31.04 168.23 31.95L168.23 31.95Q168.44 32.94 168.44 33.98L168.44 33.98Q168.44 38.05 165.86 40.20Q163.29 42.35 158.36 42.35L158.36 42.35Q154.51 42.35 152.09 40.98L152.09 40.98Q150.69 40.22 149.94 39.11Q149.19 38.01 148.91 36.99L148.91 36.99Q148.49 35.59 148.49 34.05L148.49 34.05L148.49 31.32L155.31 31.32L155.31 33.35Q155.31 34.30 155.80 34.89L155.80 34.89Q156.12 35.31 156.38 35.47Q156.64 35.63 157.10 35.73L157.10 35.73Q157.31 35.80 157.53 35.84Q157.76 35.88 158.01 35.88L158.01 35.88Q158.43 35.88 158.79 35.80Q159.16 35.73 159.62 35.49L159.62 35.49Q160.25 35.14 160.46 34.51L160.46 34.51Q160.56 34.09 160.56 33.81L160.56 33.81Q160.56 33.46 160.46 33.11Q160.35 32.76 160.07 32.38L160.07 32.38Q159.83 32.06 159.21 31.50Q158.60 30.94 158.01 30.45L158.01 30.45Q157.62 30.13 157.17 29.78Q156.71 29.43 156.15 29.02L156.15 29.02Q154.51 27.75 153.19 26.63Q151.88 25.51 151.08 24.57L151.08 24.57Q150.24 23.59 149.75 22.71Q149.26 21.84 149.05 20.86L149.05 20.86Q148.84 19.91 148.84 18.90L148.84 18.90Q148.84 11.20 158.22 11.20L158.22 11.20Q159.97 11.20 161.49 11.50Q163.01 11.79 164.06 12.35L164.06 12.35Q166.27 13.58 167.04 15.82L167.04 15.82Q167.39 16.90 167.39 18.37L167.39 18.37L167.39 20.65ZM178.94 42L171.06 42L171.06 11.55L178.94 11.55L178.94 42ZM170.64 4.86L170.64 4.86Q170.64 3.36 171.48 2.17L171.48 2.17Q171.83 1.61 172.41 1.19Q172.99 0.77 173.62 0.59L173.62 0.59Q174.28 0.38 175.02 0.38L175.02 0.38Q175.72 0.38 176.38 0.58Q177.05 0.77 177.64 1.19L177.64 1.19Q178.76 2.03 179.18 3.39L179.18 3.39Q179.39 4.09 179.39 4.86L179.39 4.86Q179.39 6.79 178.16 8.12L178.16 8.12Q176.94 9.45 175.02 9.45L175.02 9.45Q173.51 9.45 172.43 8.57L172.43 8.57Q171.87 8.15 171.48 7.61Q171.09 7.07 170.85 6.30L170.85 6.30Q170.64 5.63 170.64 4.86ZM196.96 42.35L196.96 42.35Q194.30 42.35 191.99 41.53Q189.68 40.70 187.86 39.30L187.86 39.30Q185.97 37.91 184.55 36.02Q183.13 34.13 182.33 31.60L182.33 31.60Q181.56 29.29 181.56 26.67L181.56 26.67Q181.56 24.15 182.33 21.80Q183.10 19.46 184.50 17.53L184.50 17.53Q185.97 15.54 187.91 14.14Q189.86 12.74 192.06 12.00L192.06 12.00Q193.22 11.62 194.44 11.41Q195.66 11.20 196.96 11.20L196.96 11.20Q199.44 11.20 201.81 12.00Q204.17 12.81 206.06 14.17L206.06 14.17Q207.92 15.57 209.37 17.52Q210.82 19.46 211.59 21.80L211.59 21.80Q211.94 22.96 212.15 24.18Q212.36 25.41 212.36 26.67L212.36 26.67Q212.36 28.77 211.71 31.18Q211.06 33.60 209.38 35.95L209.38 35.95Q207.99 37.91 206.03 39.34Q204.06 40.77 201.82 41.55L201.82 41.55Q200.67 41.93 199.44 42.14Q198.22 42.35 196.96 42.35ZM197.00 34.83L197.00 34.83Q198.15 34.83 199.32 34.44Q200.50 34.05 201.41 33.28L201.41 33.28Q202.56 32.38 203.21 31.31Q203.86 30.24 204.10 29.33L204.10 29.33Q204.28 28.73 204.38 28.09Q204.49 27.44 204.49 26.77L204.49 26.77Q204.49 25.41 204.10 24.20Q203.72 22.99 203.05 21.98L203.05 21.98Q202.46 21.14 201.55 20.35Q200.63 19.56 199.34 19.11L199.34 19.11Q198.19 18.72 197.00 18.72L197.00 18.72Q194.47 18.72 192.55 20.23L192.55 20.23Q191.64 20.93 190.91 21.96Q190.17 22.99 189.82 24.18L189.82 24.18Q189.65 24.78 189.54 25.44Q189.44 26.11 189.44 26.77L189.44 26.77Q189.44 27.86 189.75 29.09Q190.06 30.31 190.91 31.53L190.91 31.53Q191.57 32.52 192.48 33.25Q193.39 33.98 194.62 34.41L194.62 34.41Q195.77 34.83 197.00 34.83ZM214.99 42L214.99 11.55L222.86 11.55Q222.86 11.69 222.79 12.13Q222.72 12.56 222.62 12.81L222.62 12.81Q222.48 13.19 222.34 13.58Q222.20 13.96 221.92 14.49L221.92 14.49Q221.81 14.70 221.71 14.89Q221.60 15.08 221.46 15.29L221.46 15.29L221.88 15.64Q222.55 14.66 223.14 14.05Q223.74 13.44 224.47 12.84L224.47 12.84Q225.14 12.32 225.94 11.93Q226.75 11.55 227.52 11.37L227.52 11.37Q227.90 11.30 228.30 11.25Q228.71 11.20 229.13 11.20L229.13 11.20Q230.18 11.20 231.21 11.53Q232.24 11.86 233.01 12.53L233.01 12.53Q234.55 13.93 235.04 16.45L235.04 16.45Q235.15 17.08 235.22 17.78Q235.29 18.48 235.29 19.25L235.29 19.25L235.29 42L227.41 42L227.41 20.65Q227.41 20.23 227.34 20.00Q227.27 19.77 227.06 19.39L227.06 19.39Q226.92 19.18 226.64 19.00Q226.36 18.83 226.15 18.79L226.15 18.79Q225.80 18.72 225.52 18.72L225.52 18.72Q225.24 18.72 225.00 18.78Q224.75 18.83 224.47 18.90L224.47 18.90Q224.16 18.97 223.95 19.09Q223.74 19.21 223.39 19.39L223.39 19.39Q223.25 19.46 223.12 19.55Q223 19.63 222.86 19.74L222.86 19.74L222.86 42L214.99 42Z"/></g>
        
      </svg>
    