<?xml version="1.0" encoding="utf-8"?>
<!-- Generator: Adobe Illustrator 16.0.0, SVG Export Plug-In . SVG Version: 6.00 Build 0)  -->
<!DOCTYPE svg PUBLIC "-//W3C//DTD SVG 1.1//EN" "http://www.w3.org/Graphics/SVG/1.1/DTD/svg11.dtd">
<svg version="1.1" id="Layer_1" xmlns="http://www.w3.org/2000/svg" xmlns:xlink="http://www.w3.org/1999/xlink" x="0px" y="0px"
	 width="234.926px" height="38.76px" viewBox="0 7.02 234.926 38.76" enable-background="new 0 7.02 234.926 38.76"
	 xml:space="preserve">
<path fill="#FFFFFF" d="M44.82,24.3V45h-8.28v-18.78c0-1.839-0.44-3.288-1.32-4.35c-0.88-1.06-2.08-1.59-3.6-1.59
	c-1.521,0-2.75,0.53-3.69,1.59c-0.94,1.062-1.41,2.53-1.41,4.41V45h-8.28V25.92c0-1.76-0.43-3.14-1.29-4.14
	c-0.86-1-2.05-1.5-3.57-1.5c-1.521,0-2.751,0.53-3.69,1.59c-0.94,1.062-1.41,2.511-1.41,4.35V45H0V13.62h8.1v3.66
	c0.64-1.239,1.67-2.29,3.09-3.15c1.419-0.858,3.109-1.29,5.07-1.29c3.96,0,6.819,1.562,8.58,4.681c2-3.119,5.1-4.681,9.3-4.681
	c3.48,0,6.129,1.041,7.95,3.12C43.91,18.04,44.82,20.82,44.82,24.3z"/>
<path fill="#FFFFFF" d="M52.59,41.16c-3.18-3.08-4.77-7-4.77-11.76s1.61-8.71,4.83-11.852c3.219-3.14,7.23-4.71,12.03-4.71
	c4.8,0,8.82,1.581,12.06,4.74c3.24,3.16,4.86,7.102,4.86,11.82c0,4.76-1.59,8.68-4.77,11.76c-3.18,3.08-7.23,4.62-12.15,4.62
	C59.799,45.78,55.77,44.24,52.59,41.16z M56.1,29.4c0,2.64,0.81,4.81,2.43,6.51c1.62,1.7,3.669,2.55,6.15,2.55
	c2.52,0,4.59-0.85,6.21-2.55c1.62-1.7,2.43-3.87,2.43-6.51c0-2.681-0.82-4.892-2.46-6.631c-1.641-1.739-3.7-2.609-6.18-2.609
	s-4.53,0.87-6.15,2.609C56.91,24.51,56.1,26.721,56.1,29.4z"/>
<path fill="#FFFFFF" d="M101.079,12.84c7.239,0,10.86,4.681,10.86,14.04V45h-8.28V25.92c0-1.68-0.51-3.039-1.53-4.08
	c-1.02-1.039-2.25-1.56-3.69-1.56c-1.68,0-3.03,0.55-4.05,1.649c-1.02,1.101-1.53,2.511-1.53,4.229V45h-8.28V13.62h8.1v3.66
	c0.76-1.2,1.88-2.24,3.36-3.12C97.518,13.28,99.198,12.84,101.079,12.84z"/>
<path fill="#FFFFFF" d="M117.297,13.62v-6.6h8.16v6.601h5.88v6.72h-5.88v12.12c0,2.24,0.35,3.74,1.051,4.5
	c0.699,0.762,1.891,1.141,3.569,1.141c0.56,0,1.06-0.021,1.5-0.061v7.08c-0.841,0.199-2.021,0.3-3.541,0.3
	c-3.72,0-6.45-1.05-8.19-3.149c-1.74-2.101-2.61-5.289-2.61-9.569V20.34h-3.3v-6.72H117.297z"/>
<path fill="#FFFFFF" d="M132.791,29.4c0-4.76,1.451-8.71,4.352-11.852c2.898-3.14,6.57-4.71,11.01-4.71
	c4.8,0,8.539,1.491,11.22,4.471c2.68,2.979,4.021,7.07,4.021,12.271c0,0.801-0.021,1.4-0.061,1.8h-22.08
	c0.08,2.121,0.879,3.852,2.4,5.19c1.52,1.34,3.438,2.01,5.76,2.01c3.32,0,5.859-1.279,7.619-3.84l5.461,4.14
	c-0.881,1.602-2.441,3.15-4.68,4.65c-2.24,1.5-5.08,2.25-8.521,2.25c-4.959,0-8.949-1.53-11.969-4.59
	C134.3,38.13,132.791,34.2,132.791,29.4z M141.492,25.98h13.5c-0.08-1.921-0.74-3.46-1.98-4.62s-2.82-1.74-4.74-1.74
	s-3.479,0.6-4.68,1.8C142.393,22.62,141.691,24.141,141.492,25.98z"/>
<g>
	<path fill="#FFFFFF" d="M191.541,13.789v-6.54h4.74v6.54h6.84v4.021h-6.84v16.08c0,2.8,0.43,4.699,1.289,5.698
		c0.859,1.001,2.35,1.5,4.471,1.5l1.32-0.06v4.2c-0.84,0.12-1.801,0.18-2.881,0.18c-5.961,0-8.939-3.699-8.939-11.1v-16.5h-3.66
		v-4.021L191.541,13.789L191.541,13.789z"/>
	<path fill="#FFFFFF" d="M222.741,44.989h-5.22l-12.062-31.2h5.101l9.601,25.86l9.54-25.86h5.04L222.741,44.989z"/>
</g>
<polygon fill="#AC9470" points="170.898,45.78 184.541,7.02 178.721,7.02 165.078,45.78 "/>
</svg>
