<?xml version="1.0" encoding="utf-8"?>
<!-- Generator: Adobe Illustrator 16.0.0, SVG Export Plug-In . SVG Version: 6.00 Build 0)  -->
<!DOCTYPE svg PUBLIC "-//W3C//DTD SVG 1.1//EN" "http://www.w3.org/Graphics/SVG/1.1/DTD/svg11.dtd">
<svg version="1.1" id="Layer_1" xmlns="http://www.w3.org/2000/svg" xmlns:xlink="http://www.w3.org/1999/xlink" x="0px" y="0px"
	 width="229.75px" height="39.417px" viewBox="1.974 4.413 229.75 39.417" enable-background="new 1.974 4.413 229.75 39.417"
	 xml:space="preserve">
<path fill="#FFFFFF" d="M46.958,22.338v20.7h-8.279V24.259c0-1.84-0.44-3.288-1.32-4.351c-0.88-1.06-2.08-1.59-3.6-1.59
	c-1.521,0-2.75,0.53-3.69,1.59c-0.939,1.063-1.41,2.529-1.41,4.411v18.719h-8.279v-19.08c0-1.76-0.431-3.14-1.29-4.14
	c-0.86-1-2.051-1.5-3.57-1.5c-1.521,0-2.751,0.53-3.69,1.59c-0.939,1.063-1.41,2.511-1.41,4.351v18.779H2.139v-31.38h8.1v3.66
	c0.641-1.239,1.67-2.29,3.09-3.15c1.419-0.856,3.109-1.29,5.07-1.29c3.96,0,6.819,1.563,8.58,4.683c2-3.119,5.1-4.683,9.3-4.683
	c3.48,0,6.129,1.041,7.95,3.12C46.049,16.078,46.958,18.858,46.958,22.338z"/>
<path fill="#FFFFFF" d="M54.729,39.198c-3.18-3.08-4.771-7-4.771-11.76s1.61-8.71,4.83-11.854c3.22-3.14,7.23-4.71,12.03-4.71
	s8.82,1.581,12.061,4.74c3.239,3.16,4.859,7.104,4.859,11.821c0,4.76-1.59,8.68-4.77,11.76c-3.181,3.08-7.23,4.619-12.15,4.619
	C61.938,43.819,57.908,42.278,54.729,39.198z M58.238,27.438c0,2.641,0.811,4.811,2.43,6.51c1.62,1.701,3.67,2.551,6.15,2.551
	c2.521,0,4.59-0.85,6.21-2.551c1.62-1.699,2.43-3.869,2.43-6.51c0-2.682-0.819-4.894-2.46-6.632s-3.699-2.608-6.18-2.608
	c-2.479,0-4.53,0.87-6.15,2.608C59.049,22.548,58.238,24.761,58.238,27.438z"/>
<path fill="#FFFFFF" d="M103.218,10.878c7.238,0,10.859,4.683,10.859,14.041v18.119h-8.279v-19.08c0-1.68-0.511-3.039-1.53-4.08
	c-1.021-1.039-2.25-1.56-3.69-1.56c-1.68,0-3.029,0.55-4.05,1.649c-1.02,1.101-1.53,2.511-1.53,4.229v18.842h-8.279v-31.38h8.1v3.66
	c0.76-1.2,1.88-2.24,3.36-3.12C99.656,11.318,101.337,10.878,103.218,10.878z"/>
<path fill="#FFFFFF" d="M119.436,11.658v-6.6h8.16v6.601h5.88v6.72h-5.88v12.12c0,2.24,0.35,3.74,1.051,4.5
	c0.699,0.764,1.89,1.143,3.569,1.143c0.56,0,1.06-0.021,1.5-0.063v7.08c-0.841,0.199-2.021,0.301-3.54,0.301
	c-3.721,0-6.45-1.051-8.19-3.148c-1.74-2.102-2.61-5.289-2.61-9.568V18.378h-3.3v-6.72H119.436z"/>
<g>
	<polygon fill="#AD9571" points="167.702,43.756 181.315,5.081 175.495,5.081 164.792,35.49 	"/>
</g>
<path fill="#FFFFFF" d="M158.37,33.783c-1.7,1.886-3.971,2.835-6.82,2.835c-2.32,0-4.24-0.67-5.76-2.012
	c-1.52-1.336-2.319-3.068-2.399-5.189h18.546l-6.254-17.766c-1.62-0.508-3.41-0.777-5.393-0.777c-4.439,0-8.11,1.57-11.01,4.71
	c-2.9,3.144-4.351,7.093-4.351,11.853c0,4.801,1.51,8.73,4.529,11.791c3.021,3.061,7.011,4.59,11.97,4.59
	c3.441,0,6.281-0.75,8.521-2.25c0.325-0.218,0.632-0.438,0.929-0.657L158.37,33.783z M145.73,19.457c1.2-1.2,2.76-1.8,4.68-1.8
	s3.5,0.58,4.74,1.74c1.239,1.16,1.899,2.699,1.979,4.619h-13.5C143.829,22.179,144.53,20.657,145.73,19.457z"/>
<g>
	<path fill="#FFFFFF" d="M188.496,11.869v-6.54h4.74v6.54h6.84v4.021h-6.84v16.08c0,2.801,0.43,4.699,1.289,5.697
		c0.859,1.002,2.35,1.5,4.471,1.5l1.32-0.059v4.199c-0.84,0.121-1.801,0.18-2.881,0.18c-5.961,0-8.939-3.699-8.939-11.1v-16.5h-3.66
		v-4.021L188.496,11.869L188.496,11.869z"/>
	<path fill="#FFFFFF" d="M219.696,43.069h-5.22l-12.063-31.201h5.102l9.601,25.861l9.54-25.861h5.04L219.696,43.069z"/>
</g>
</svg>
