<?xml version="1.0" encoding="utf-8"?>
<!-- Generator: Adobe Illustrator 16.0.0, SVG Export Plug-In . SVG Version: 6.00 Build 0)  -->
<!DOCTYPE svg PUBLIC "-//W3C//DTD SVG 1.1//EN" "http://www.w3.org/Graphics/SVG/1.1/DTD/svg11.dtd">
<svg version="1.1" id="Layer_1" xmlns="http://www.w3.org/2000/svg" xmlns:xlink="http://www.w3.org/1999/xlink" x="0px" y="0px"
	 width="229.88px" height="38.76px" viewBox="5.046 0 229.88 38.76" enable-background="new 5.046 0 229.88 38.76"
	 xml:space="preserve">
<g>
	<path fill="#FFFFFF" d="M191.541,6.769v-6.54h4.74v6.54h6.84v4.021h-6.84v16.08c0,2.801,0.43,4.699,1.289,5.697
		c0.859,1.002,2.35,1.5,4.471,1.5l1.32-0.059v4.199c-0.84,0.121-1.801,0.18-2.881,0.18c-5.961,0-8.939-3.699-8.939-11.1v-16.5h-3.66
		V6.767L191.541,6.769L191.541,6.769z"/>
	<path fill="#FFFFFF" d="M222.741,37.97h-5.22L205.459,6.769h5.102l9.601,25.861l9.54-25.861h5.04L222.741,37.97z"/>
</g>
<polygon fill="#AC9470" points="170.898,38.761 184.541,0 178.721,0 165.078,38.761 "/>
<path fill="#FFFFFF" d="M49.865,17.624v20.702h-8.279v-18.78c0-1.84-0.44-3.289-1.32-4.352c-0.88-1.059-2.08-1.59-3.6-1.59
	c-1.521,0-2.75,0.531-3.69,1.59c-0.939,1.063-1.41,2.529-1.41,4.412v18.719h-8.279V19.245c0-1.76-0.431-3.141-1.29-4.141
	c-0.86-1-2.051-1.5-3.57-1.5c-1.521,0-2.751,0.531-3.69,1.59c-0.939,1.063-1.41,2.512-1.41,4.352v18.78H5.046V6.944h8.1v3.66
	c0.641-1.238,1.67-2.289,3.09-3.15c1.419-0.855,3.109-1.289,5.07-1.289c3.96,0,6.819,1.562,8.58,4.681c2-3.119,5.1-4.681,9.3-4.681
	c3.48,0,6.129,1.041,7.95,3.119C48.956,11.364,49.865,14.145,49.865,17.624z"/>
<path fill="#FFFFFF" d="M105.292,5.999c7.238,0,10.859,4.681,10.859,14.041v18.119h-8.279V19.079c0-1.68-0.51-3.039-1.529-4.08
	c-1.021-1.039-2.25-1.561-3.691-1.561c-1.68,0-3.029,0.551-4.05,1.65c-1.02,1.1-1.53,2.51-1.53,4.229v18.842h-8.279V6.778h8.1v3.66
	c0.76-1.199,1.88-2.24,3.36-3.119C101.73,6.438,103.411,5.999,105.292,5.999z"/>
<path fill="#FFFFFF" d="M121.51,6.778V0.179h8.16V6.78h5.879v6.719h-5.879V25.62c0,2.24,0.35,3.74,1.051,4.5
	c0.699,0.764,1.889,1.143,3.568,1.143c0.561,0,1.061-0.021,1.5-0.063v7.08c-0.84,0.199-2.021,0.301-3.539,0.301
	c-3.721,0-6.451-1.051-8.191-3.148c-1.74-2.102-2.609-5.289-2.609-9.568V13.499h-3.301V6.778H121.51z"/>
<path fill="#FFFFFF" d="M69.307,6.001c-9.09,0-16.458,7.369-16.458,16.459c0,9.09,7.369,16.459,16.458,16.459
	S85.766,31.55,85.766,22.46C85.766,13.37,78.397,6.001,69.307,6.001z M69.307,31.714c-5.111,0-9.254-4.143-9.254-9.254
	c0-5.112,4.143-9.254,9.254-9.254s9.254,4.143,9.254,9.254C78.561,27.571,74.418,31.714,69.307,31.714z"/>
<g>
	<path fill="#FFFFFF" d="M161.729,31.741h-8.267v-0.002c-3.831,0-7.11-2.332-8.515-5.652h8.515h10.257l4.098-11.639
		c-2.818-5.023-8.186-8.421-14.354-8.421c-9.09,0-16.458,7.369-16.458,16.459c0,9.09,7.368,16.459,16.458,16.459h5.731
		L161.729,31.741z M153.462,13.231c3.833,0,7.116,2.332,8.521,5.652H144.94C146.346,15.563,149.629,13.231,153.462,13.231z"/>
</g>
</svg>
