<?xml version="1.0" encoding="utf-8"?>
<!-- Generator: Adobe Illustrator 16.0.0, SVG Export Plug-In . SVG Version: 6.00 Build 0)  -->
<!DOCTYPE svg PUBLIC "-//W3C//DTD SVG 1.1//EN" "http://www.w3.org/Graphics/SVG/1.1/DTD/svg11.dtd">
<svg version="1.1" id="Layer_1" xmlns="http://www.w3.org/2000/svg" xmlns:xlink="http://www.w3.org/1999/xlink" x="0px" y="0px"
	 width="329.447px" height="44.158px" viewBox="0 1.62 329.447 44.158" enable-background="new 0 1.62 329.447 44.158"
	 xml:space="preserve">
<path fill="#FFFFFF" d="M44.82,24.3V45h-8.28v-18.78c0-1.839-0.44-3.287-1.32-4.35c-0.88-1.06-2.08-1.59-3.6-1.59
	c-1.521,0-2.75,0.53-3.69,1.59c-0.94,1.063-1.41,2.53-1.41,4.41V45h-8.28V25.92c0-1.76-0.43-3.14-1.29-4.14
	c-0.86-1-2.05-1.5-3.57-1.5c-1.521,0-2.751,0.53-3.69,1.59c-0.94,1.063-1.41,2.511-1.41,4.35V45H0V13.62h8.1v3.66
	c0.64-1.239,1.67-2.29,3.09-3.15c1.419-0.857,3.109-1.29,5.07-1.29c3.96,0,6.819,1.563,8.58,4.682c2-3.119,5.1-4.682,9.3-4.682
	c3.48,0,6.129,1.041,7.95,3.12C43.91,18.04,44.82,20.82,44.82,24.3z"/>
<path fill="#FFFFFF" d="M52.59,41.16c-3.18-3.08-4.77-7-4.77-11.76s1.61-8.71,4.83-11.853c3.219-3.14,7.23-4.71,12.03-4.71
	c4.8,0,8.82,1.581,12.06,4.74c3.24,3.16,4.86,7.103,4.86,11.82c0,4.76-1.59,8.68-4.77,11.76c-3.18,3.08-7.23,4.62-12.15,4.62
	C59.799,45.78,55.77,44.24,52.59,41.16z M56.1,29.4c0,2.64,0.81,4.81,2.43,6.51c1.62,1.7,3.669,2.55,6.15,2.55
	c2.52,0,4.59-0.85,6.21-2.55c1.62-1.7,2.43-3.87,2.43-6.51c0-2.682-0.82-4.893-2.46-6.631c-1.641-1.739-3.7-2.609-6.18-2.609
	s-4.53,0.87-6.15,2.609C56.91,24.51,56.1,26.721,56.1,29.4z"/>
<path fill="#FFFFFF" d="M101.079,12.84c7.239,0,10.86,4.682,10.86,14.04V45h-8.28V25.92c0-1.68-0.51-3.039-1.53-4.08
	c-1.02-1.039-2.25-1.56-3.69-1.56c-1.68,0-3.03,0.55-4.05,1.649c-1.02,1.101-1.53,2.511-1.53,4.229V45h-8.28V13.62h8.1v3.66
	c0.76-1.2,1.88-2.24,3.36-3.12C97.518,13.28,99.198,12.84,101.079,12.84z"/>
<path fill="#FFFFFF" d="M117.297,13.62v-6.6h8.16v6.601h5.88v6.72h-5.88v12.12c0,2.24,0.35,3.74,1.051,4.5
	c0.699,0.763,1.89,1.142,3.569,1.142c0.56,0,1.06-0.021,1.5-0.062v7.08c-0.84,0.199-2.021,0.3-3.54,0.3
	c-3.72,0-6.45-1.05-8.19-3.148c-1.74-2.102-2.61-5.289-2.61-9.569V20.34h-3.3v-6.72H117.297z"/>
<path fill="#FFFFFF" d="M132.791,29.4c0-4.76,1.45-8.71,4.351-11.853c2.899-3.14,6.57-4.71,11.01-4.71c4.8,0,8.54,1.491,11.22,4.472
	c2.68,2.979,4.021,7.069,4.021,12.271c0,0.801-0.021,1.4-0.061,1.8h-22.08c0.08,2.121,0.88,3.853,2.4,5.19
	c1.52,1.34,3.439,2.01,5.76,2.01c3.32,0,5.859-1.279,7.62-3.84l5.46,4.14c-0.88,1.603-2.44,3.15-4.68,4.65
	c-2.24,1.5-5.08,2.25-8.521,2.25c-4.96,0-8.95-1.53-11.97-4.59C134.301,38.13,132.791,34.2,132.791,29.4z M141.491,25.98h13.5
	c-0.08-1.921-0.74-3.46-1.979-4.62c-1.24-1.16-2.82-1.74-4.74-1.74s-3.48,0.6-4.68,1.8C142.392,22.62,141.691,24.141,141.491,25.98z
	"/>
<path fill="#FFFFFF" d="M184.541,39.119l3.299-2.16c1.721,3.2,4.32,4.8,7.801,4.8c1.64,0,3.011-0.448,4.109-1.35
	c1.1-0.901,1.65-2.109,1.65-3.63c0-1.32-0.541-2.42-1.621-3.3s-2.379-1.61-3.898-2.19c-1.521-0.579-3.051-1.209-4.59-1.89
	c-1.541-0.682-2.852-1.683-3.932-3c-1.08-1.32-1.619-2.96-1.619-4.92c0-2.562,0.949-4.61,2.85-6.15
	c1.9-1.539,4.291-2.311,7.17-2.311c2.601,0,4.73,0.631,6.392,1.891c1.659,1.26,2.75,2.631,3.271,4.109l-3.479,1.98
	c-1.32-2.68-3.479-4.02-6.479-4.02c-1.479,0-2.711,0.39-3.689,1.17c-0.98,0.779-1.471,1.83-1.471,3.147
	c0,1.281,0.539,2.353,1.619,3.21c1.08,0.861,2.393,1.57,3.93,2.132c1.541,0.561,3.08,1.17,4.621,1.828
	c1.539,0.66,2.852,1.673,3.932,3.03c1.08,1.36,1.619,3.04,1.619,5.04c0,2.721-1,4.94-3,6.66s-4.539,2.58-7.619,2.58
	C190.24,45.779,186.619,43.559,184.541,39.119z"/>
<path fill="#FFFFFF" d="M210.604,13.799v-6.54h4.739v6.54h6.84v4.021h-6.84v16.079c0,2.8,0.431,4.7,1.291,5.699
	c0.857,1.001,2.349,1.5,4.47,1.5l1.319-0.062v4.2c-0.84,0.12-1.801,0.18-2.881,0.18c-5.959,0-8.938-3.699-8.938-11.1v-16.5h-3.66
	v-4.019H210.604z"/>
<path fill="#FFFFFF" d="M236.219,45.779c-3.521,0-6.239-1.16-8.16-3.48c-1.92-2.317-2.881-5.317-2.881-9v-19.5h4.74v19.681
	c0,2.438,0.689,4.38,2.07,5.817c1.381,1.44,3.148,2.16,5.311,2.16c2.398,0,4.351-0.81,5.851-2.43s2.25-3.71,2.25-6.271V13.799h4.801
	v31.2h-4.739v-4.5c-0.761,1.48-1.979,2.73-3.66,3.75C240.119,45.269,238.258,45.779,236.219,45.779z"/>
<path fill="#FFFFFF" d="M283.838,1.619v43.38h-4.621v-4.92c-2.6,3.801-6.199,5.7-10.799,5.7c-4.479,0-8.141-1.53-10.979-4.59
	c-2.841-3.063-4.261-6.972-4.261-11.73c0-4.839,1.379-8.79,4.142-11.85c2.76-3.063,6.338-4.591,10.737-4.591
	c2.841,0,5.201,0.649,7.08,1.948c1.881,1.303,3.183,2.593,3.9,3.87V1.619H283.838z M279.217,29.519c0-3.761-1.01-6.729-3.028-8.909
	c-2.021-2.18-4.552-3.271-7.591-3.271c-3.08,0-5.608,1.143-7.59,3.42c-1.979,2.28-2.971,5.2-2.971,8.762s1.01,6.448,3.029,8.671
	c2.02,2.22,4.551,3.329,7.59,3.329c3.201,0,5.762-1.159,7.682-3.479S279.217,32.879,279.217,29.519z"/>
<path fill="#FFFFFF" d="M287.547,5.748c0-0.879,0.31-1.64,0.931-2.279c0.618-0.64,1.391-0.961,2.311-0.961
	c0.921,0,1.699,0.313,2.341,0.933c0.64,0.62,0.961,1.39,0.961,2.31c0,0.921-0.322,1.701-0.961,2.34
	c-0.642,0.643-1.42,0.96-2.341,0.96c-0.92,0-1.69-0.317-2.311-0.96C287.856,7.449,287.547,6.669,287.547,5.748z M288.447,44.988
	v-31.2h4.738v31.2H288.447z"/>
<path fill="#FFFFFF" d="M301.488,41.129c-3.082-3.1-4.621-7.01-4.621-11.729c0-4.72,1.551-8.63,4.65-11.731
	c3.1-3.1,6.989-4.648,11.67-4.648c4.68,0,8.559,1.561,11.641,4.681c3.078,3.12,4.619,7.021,4.619,11.701s-1.551,8.58-4.65,11.699
	c-3.098,3.117-6.987,4.68-11.67,4.68C308.447,45.78,304.569,44.23,301.488,41.129z M301.729,29.4c0,3.52,1.069,6.41,3.211,8.67
	c2.139,2.26,4.869,3.389,8.188,3.389c3.359,0,6.121-1.139,8.279-3.42c2.16-2.279,3.24-5.16,3.24-8.639
	c0-3.481-1.08-6.361-3.24-8.643c-2.158-2.277-4.92-3.42-8.279-3.42c-3.317,0-6.051,1.15-8.188,3.45
	C302.799,23.09,301.729,25.959,301.729,29.4z"/>
<polygon fill="#AD9571" points="178.721,7.02 165.078,45.78 170.898,45.78 184.541,7.02 "/>
</svg>
