<?xml version="1.0" encoding="utf-8"?>
<!-- Generator: Adobe Illustrator 16.0.0, SVG Export Plug-In . SVG Version: 6.00 Build 0)  -->
<!DOCTYPE svg PUBLIC "-//W3C//DTD SVG 1.1//EN" "http://www.w3.org/Graphics/SVG/1.1/DTD/svg11.dtd">
<svg version="1.1" id="Layer_1" xmlns="http://www.w3.org/2000/svg" xmlns:xlink="http://www.w3.org/1999/xlink" x="0px" y="0px"
	 width="325.125px" height="45.063px" viewBox="0 0 325.125 45.063" enable-background="new 0 0 325.125 45.063"
	 xml:space="preserve">
<path fill="#FFFFFF" d="M45.193,22.759v20.7h-8.279V24.68c0-1.839-0.44-3.288-1.32-4.35c-0.88-1.06-2.08-1.59-3.6-1.59
	c-1.521,0-2.75,0.53-3.69,1.59c-0.939,1.063-1.41,2.529-1.41,4.411v18.719h-8.279v-19.08c0-1.759-0.431-3.139-1.29-4.139
	c-0.86-1-2.051-1.5-3.57-1.5c-1.521,0-2.751,0.53-3.69,1.59c-0.939,1.063-1.41,2.511-1.41,4.35v18.779H0.374V12.08h8.1v3.66
	c0.641-1.239,1.67-2.29,3.09-3.15c1.419-0.856,3.109-1.29,5.07-1.29c3.96,0,6.819,1.563,8.58,4.683c2-3.119,5.1-4.683,9.3-4.683
	c3.48,0,6.129,1.041,7.95,3.12C44.284,16.5,45.193,19.28,45.193,22.759z"/>
<path fill="#FFFFFF" d="M52.963,39.619c-3.18-3.08-4.771-7-4.771-11.76s1.61-8.709,4.83-11.853c3.22-3.14,7.23-4.71,12.03-4.71
	s8.82,1.581,12.061,4.74c3.239,3.16,4.859,7.104,4.859,11.821c0,4.76-1.59,8.68-4.77,11.76c-3.181,3.08-7.23,4.619-12.15,4.619
	C60.172,44.24,56.143,42.699,52.963,39.619z M56.473,27.859c0,2.641,0.811,4.811,2.43,6.51c1.62,1.701,3.67,2.551,6.15,2.551
	c2.521,0,4.59-0.85,6.21-2.551c1.62-1.699,2.43-3.869,2.43-6.51c0-2.682-0.819-4.893-2.46-6.631s-3.699-2.608-6.18-2.608
	c-2.479,0-4.53,0.87-6.15,2.608C57.284,22.969,56.473,25.182,56.473,27.859z"/>
<path fill="#FFFFFF" d="M101.453,11.299c7.238,0,10.859,4.683,10.859,14.041v18.119h-8.279v-19.08c0-1.679-0.511-3.039-1.53-4.08
	c-1.021-1.039-2.25-1.56-3.69-1.56c-1.68,0-3.029,0.55-4.05,1.649c-1.02,1.101-1.53,2.511-1.53,4.228v18.842h-8.279V12.08h8.1v3.66
	c0.76-1.2,1.88-2.24,3.36-3.12C97.891,11.74,99.572,11.299,101.453,11.299z"/>
<path fill="#FFFFFF" d="M117.67,12.08v-6.6h8.16v6.601h5.88v6.72h-5.88v12.12c0,2.24,0.35,3.74,1.051,4.5
	c0.699,0.764,1.89,1.143,3.569,1.143c0.56,0,1.06-0.021,1.5-0.063v7.08c-0.841,0.199-2.021,0.301-3.54,0.301
	c-3.721,0-6.45-1.051-8.19-3.148c-1.74-2.102-2.61-5.289-2.61-9.568V18.799h-3.3v-6.72H117.67z"/>
<path fill="#FFFFFF" d="M179.639,37.586l3.299-2.16c1.721,3.201,4.32,4.801,7.801,4.801c1.639,0,3.01-0.447,4.109-1.35
	s1.648-2.109,1.648-3.631c0-1.32-0.541-2.42-1.621-3.299c-1.078-0.881-2.379-1.611-3.896-2.191c-1.521-0.578-3.051-1.209-4.59-1.889
	c-1.541-0.684-2.854-1.684-3.934-3c-1.08-1.32-1.619-2.962-1.619-4.921c0-2.563,0.949-4.61,2.852-6.15
	c1.898-1.539,4.291-2.311,7.17-2.311c2.6,0,4.729,0.631,6.391,1.891c1.66,1.26,2.75,2.631,3.271,4.109l-3.479,1.979
	c-1.32-2.68-3.479-4.02-6.479-4.02c-1.48,0-2.711,0.39-3.689,1.17c-0.98,0.778-1.471,1.83-1.471,3.146
	c0,1.281,0.539,2.353,1.619,3.21c1.08,0.863,2.393,1.572,3.93,2.134c1.541,0.561,3.08,1.17,4.621,1.826
	c1.539,0.66,2.852,1.674,3.932,3.031c1.08,1.359,1.619,3.039,1.619,5.039c0,2.721-1,4.941-3,6.66c-2,1.721-4.539,2.58-7.619,2.58
	C185.338,44.246,181.717,42.027,179.639,37.586z"/>
<path fill="#FFFFFF" d="M205.701,12.265v-6.54h4.738v6.54h6.84v4.021h-6.84v16.081c0,2.799,0.432,4.699,1.291,5.699
	c0.857,1,2.35,1.5,4.471,1.5l1.318-0.063v4.199c-0.84,0.121-1.801,0.18-2.881,0.18c-5.959,0-8.938-3.699-8.938-11.1v-16.5h-3.66
	v-4.02h3.66V12.265z"/>
<path fill="#FFFFFF" d="M231.316,44.246c-3.521,0-6.24-1.16-8.16-3.48c-1.92-2.316-2.881-5.316-2.881-9v-19.5h4.74v19.682
	c0,2.438,0.688,4.381,2.068,5.816c1.383,1.441,3.148,2.16,5.313,2.16c2.396,0,4.35-0.809,5.85-2.43c1.5-1.619,2.25-3.709,2.25-6.271
	V12.265h4.803v31.202h-4.74v-4.5c-0.76,1.48-1.979,2.73-3.66,3.75S233.355,44.246,231.316,44.246z"/>
<path fill="#FFFFFF" d="M278.936,0.085v43.381h-4.621v-4.92c-2.6,3.801-6.199,5.699-10.799,5.699c-4.48,0-8.143-1.529-10.98-4.59
	c-2.84-3.063-4.26-6.973-4.26-11.73c0-4.838,1.379-8.791,4.141-11.85c2.762-3.063,6.34-4.591,10.738-4.591
	c2.84,0,5.201,0.648,7.08,1.947c1.881,1.304,3.182,2.594,3.9,3.87V0.085H278.936z M274.314,27.986c0-3.762-1.01-6.73-3.029-8.91
	s-4.551-3.271-7.59-3.271c-3.08,0-5.607,1.144-7.59,3.42c-1.98,2.28-2.971,5.201-2.971,8.763s1.01,6.447,3.027,8.672
	c2.021,2.219,4.553,3.328,7.59,3.328c3.201,0,5.764-1.158,7.684-3.479S274.314,31.346,274.314,27.986z"/>
<path fill="#FFFFFF" d="M282.645,4.214c0-0.879,0.309-1.64,0.93-2.279c0.619-0.64,1.393-0.961,2.313-0.961s1.697,0.313,2.34,0.934
	c0.641,0.62,0.961,1.39,0.961,2.31c0,0.921-0.322,1.701-0.961,2.34c-0.643,0.644-1.42,0.96-2.34,0.96s-1.691-0.316-2.313-0.96
	C282.953,5.916,282.645,5.135,282.645,4.214z M283.543,43.455V12.254h4.738v31.201H283.543z"/>
<path fill="#FFFFFF" d="M296.584,39.596c-3.08-3.1-4.619-7.01-4.619-11.729s1.551-8.63,4.648-11.732
	c3.102-3.1,6.99-4.647,11.672-4.647c4.68,0,8.559,1.561,11.641,4.681c3.078,3.12,4.619,7.023,4.619,11.703s-1.551,8.58-4.65,11.699
	c-3.098,3.115-6.988,4.68-11.67,4.68C303.545,44.248,299.666,42.697,296.584,39.596z M296.826,27.867c0,3.52,1.068,6.41,3.211,8.67
	c2.139,2.26,4.869,3.389,8.188,3.389c3.359,0,6.121-1.139,8.279-3.42c2.16-2.279,3.24-5.16,3.24-8.639c0-3.48-1.08-6.362-3.24-8.644
	c-2.158-2.276-4.92-3.42-8.279-3.42c-3.316,0-6.051,1.15-8.188,3.45C297.896,21.556,296.826,24.426,296.826,27.867z"/>
<g>
	<polygon fill="#AD9571" points="165.938,44.178 179.551,5.502 173.73,5.502 163.027,35.912 	"/>
</g>
<path fill="#FFFFFF" d="M149.785,37.039c-2.32,0-4.24-0.67-5.76-2.012c-1.52-1.336-2.319-3.068-2.399-5.189h13.46l-1.9-5.4h-11.32
	c0.199-1.837,0.9-3.359,2.101-4.559s2.76-1.8,4.68-1.8c0.888,0,1.695,0.138,2.437,0.386l-2.523-7.168
	c-0.012,0-0.022-0.001-0.034-0.001c-4.439,0-8.11,1.57-11.01,4.71c-2.9,3.144-4.351,7.092-4.351,11.852
	c0,4.801,1.51,8.73,4.529,11.791c3.021,3.061,7.011,4.59,11.97,4.59c3.441,0,6.281-0.75,8.521-2.25
	c0.325-0.217,0.632-0.438,0.929-0.656l-2.509-7.127C154.905,36.09,152.634,37.039,149.785,37.039z"/>
<g>
	<polygon fill="#AD9571" points="165.938,44.178 179.551,5.502 173.73,5.502 163.027,35.912 	"/>
</g>
</svg>
