<?xml version="1.0" encoding="utf-8"?>
<!-- Generator: Adobe Illustrator 16.0.0, SVG Export Plug-In . SVG Version: 6.00 Build 0)  -->
<!DOCTYPE svg PUBLIC "-//W3C//DTD SVG 1.1//EN" "http://www.w3.org/Graphics/SVG/1.1/DTD/svg11.dtd">
<svg version="1.1" id="Layer_1" xmlns="http://www.w3.org/2000/svg" xmlns:xlink="http://www.w3.org/1999/xlink" x="0px" y="0px"
	 width="324.333px" height="44.375px" viewBox="2.015 -0.421 324.333 44.375" enable-background="new 2.015 -0.421 324.333 44.375"
	 xml:space="preserve">
<path fill="#FFFFFF" d="M46.958,22.338v20.7h-8.279V24.259c0-1.84-0.44-3.288-1.32-4.351c-0.88-1.06-2.08-1.59-3.6-1.59
	c-1.521,0-2.75,0.53-3.69,1.59c-0.939,1.063-1.41,2.529-1.41,4.411v18.719h-8.279v-19.08c0-1.76-0.431-3.14-1.29-4.14
	c-0.86-1-2.051-1.5-3.57-1.5c-1.521,0-2.751,0.53-3.69,1.59c-0.939,1.063-1.41,2.511-1.41,4.351v18.779H2.139v-31.38h8.1v3.66
	c0.641-1.239,1.67-2.29,3.09-3.15c1.419-0.856,3.109-1.29,5.07-1.29c3.96,0,6.819,1.563,8.58,4.683c2-3.119,5.1-4.683,9.3-4.683
	c3.48,0,6.129,1.041,7.95,3.12C46.049,16.078,46.958,18.858,46.958,22.338z"/>
<path fill="#FFFFFF" d="M54.729,39.198c-3.18-3.08-4.771-7-4.771-11.76s1.61-8.71,4.83-11.854c3.22-3.14,7.23-4.71,12.03-4.71
	s8.82,1.581,12.061,4.74c3.239,3.16,4.859,7.104,4.859,11.821c0,4.76-1.59,8.68-4.77,11.76c-3.181,3.08-7.23,4.619-12.15,4.619
	C61.938,43.819,57.908,42.278,54.729,39.198z M58.238,27.438c0,2.641,0.811,4.811,2.43,6.51c1.62,1.701,3.67,2.551,6.15,2.551
	c2.521,0,4.59-0.85,6.21-2.551c1.62-1.699,2.43-3.869,2.43-6.51c0-2.682-0.819-4.894-2.46-6.632s-3.699-2.608-6.18-2.608
	c-2.479,0-4.53,0.87-6.15,2.608C59.049,22.548,58.238,24.761,58.238,27.438z"/>
<path fill="#FFFFFF" d="M103.218,10.878c7.238,0,10.859,4.683,10.859,14.041v18.119h-8.279v-19.08c0-1.68-0.511-3.039-1.53-4.08
	c-1.021-1.039-2.25-1.56-3.69-1.56c-1.68,0-3.029,0.55-4.05,1.649c-1.02,1.101-1.53,2.511-1.53,4.229v18.842h-8.279v-31.38h8.1v3.66
	c0.76-1.2,1.88-2.24,3.36-3.12C99.656,11.318,101.337,10.878,103.218,10.878z"/>
<path fill="#FFFFFF" d="M119.436,11.658v-6.6h8.16v6.601h5.88v6.72h-5.88v12.12c0,2.24,0.35,3.74,1.051,4.5
	c0.699,0.764,1.89,1.143,3.569,1.143c0.56,0,1.06-0.021,1.5-0.063v7.08c-0.841,0.199-2.021,0.301-3.54,0.301
	c-3.721,0-6.45-1.051-8.19-3.148c-1.74-2.102-2.61-5.289-2.61-9.568V18.378h-3.3v-6.72H119.436z"/>
<path fill="#FFFFFF" d="M181.403,37.164l3.299-2.16c1.721,3.201,4.32,4.801,7.801,4.801c1.639,0,3.01-0.447,4.109-1.35
	s1.648-2.109,1.648-3.631c0-1.32-0.541-2.42-1.621-3.299c-1.078-0.881-2.379-1.611-3.896-2.191c-1.521-0.578-3.051-1.209-4.59-1.889
	c-1.541-0.684-2.854-1.684-3.934-3c-1.08-1.32-1.619-2.962-1.619-4.921c0-2.563,0.949-4.61,2.852-6.15
	c1.898-1.539,4.291-2.311,7.17-2.311c2.6,0,4.729,0.631,6.391,1.891c1.66,1.26,2.75,2.631,3.271,4.109l-3.479,1.979
	c-1.32-2.68-3.479-4.02-6.479-4.02c-1.48,0-2.711,0.39-3.689,1.17c-0.98,0.778-1.471,1.83-1.471,3.146
	c0,1.281,0.539,2.353,1.619,3.21c1.08,0.862,2.393,1.571,3.93,2.134c1.541,0.561,3.08,1.17,4.621,1.826
	c1.539,0.66,2.852,1.674,3.932,3.031c1.08,1.359,1.619,3.039,1.619,5.039c0,2.721-1,4.941-3,6.66c-2,1.721-4.539,2.58-7.619,2.58
	C187.103,43.824,183.481,41.605,181.403,37.164z"/>
<path fill="#FFFFFF" d="M207.466,11.844v-6.54h4.738v6.54h6.84v4.021h-6.84v16.08c0,2.799,0.432,4.699,1.291,5.699
	c0.857,1,2.35,1.5,4.471,1.5l1.318-0.063v4.199c-0.84,0.121-1.801,0.18-2.881,0.18c-5.959,0-8.938-3.699-8.938-11.1v-16.5h-3.66
	v-4.02h3.66V11.844z"/>
<path fill="#FFFFFF" d="M233.081,43.824c-3.521,0-6.24-1.16-8.16-3.48c-1.92-2.316-2.881-5.316-2.881-9v-19.5h4.74v19.682
	c0,2.438,0.688,4.381,2.068,5.816c1.383,1.441,3.148,2.16,5.313,2.16c2.396,0,4.35-0.809,5.85-2.43c1.5-1.619,2.25-3.709,2.25-6.271
	V11.844h4.803v31.201h-4.74v-4.5c-0.76,1.48-1.979,2.73-3.66,3.75S235.12,43.824,233.081,43.824z"/>
<path fill="#FFFFFF" d="M280.7-0.336v43.381h-4.621v-4.92c-2.6,3.801-6.199,5.699-10.799,5.699c-4.48,0-8.143-1.529-10.98-4.59
	c-2.84-3.063-4.26-6.973-4.26-11.73c0-4.838,1.379-8.79,4.141-11.85c2.762-3.063,6.34-4.591,10.738-4.591
	c2.84,0,5.201,0.648,7.08,1.947c1.881,1.304,3.182,2.594,3.9,3.87V-0.336H280.7z M276.079,27.564c0-3.762-1.01-6.729-3.029-8.909
	s-4.551-3.271-7.59-3.271c-3.08,0-5.607,1.144-7.59,3.42c-1.98,2.28-2.971,5.2-2.971,8.763s1.01,6.447,3.027,8.672
	c2.021,2.219,4.553,3.328,7.59,3.328c3.201,0,5.764-1.158,7.684-3.479S276.079,30.924,276.079,27.564z"/>
<path fill="#FFFFFF" d="M284.409,3.793c0-0.879,0.309-1.64,0.93-2.279c0.619-0.64,1.393-0.961,2.313-0.961s1.697,0.313,2.34,0.934
	c0.641,0.62,0.961,1.39,0.961,2.31c0,0.921-0.322,1.701-0.961,2.34c-0.643,0.644-1.42,0.96-2.34,0.96s-1.691-0.316-2.313-0.96
	C284.718,5.494,284.409,4.714,284.409,3.793z M285.308,43.033v-31.2h4.738v31.2H285.308z"/>
<path fill="#FFFFFF" d="M298.349,39.174c-3.08-3.1-4.619-7.01-4.619-11.729s1.551-8.63,4.648-11.731
	c3.102-3.1,6.99-4.647,11.672-4.647c4.68,0,8.559,1.561,11.641,4.681c3.078,3.12,4.619,7.022,4.619,11.702s-1.551,8.58-4.65,11.699
	c-3.098,3.115-6.988,4.68-11.67,4.68C305.31,43.826,301.431,42.275,298.349,39.174z M298.591,27.445c0,3.52,1.068,6.41,3.211,8.67
	c2.139,2.26,4.869,3.389,8.188,3.389c3.359,0,6.121-1.139,8.279-3.42c2.16-2.279,3.24-5.16,3.24-8.639c0-3.48-1.08-6.361-3.24-8.644
	c-2.158-2.276-4.92-3.42-8.279-3.42c-3.316,0-6.051,1.15-8.188,3.45C299.661,21.135,298.591,24.004,298.591,27.445z"/>
<g>
	<polygon fill="#AD9571" points="167.702,43.756 181.315,5.081 175.495,5.081 164.792,35.49 	"/>
</g>
<path fill="#FFFFFF" d="M158.37,33.783c-1.7,1.886-3.971,2.835-6.82,2.835c-2.32,0-4.24-0.67-5.76-2.012
	c-1.52-1.336-2.319-3.068-2.399-5.189h18.546l-6.254-17.766c-1.62-0.508-3.41-0.777-5.393-0.777c-4.439,0-8.11,1.57-11.01,4.71
	c-2.9,3.144-4.351,7.093-4.351,11.853c0,4.801,1.51,8.73,4.529,11.791c3.021,3.061,7.011,4.59,11.97,4.59
	c3.441,0,6.281-0.75,8.521-2.25c0.325-0.218,0.632-0.438,0.929-0.657L158.37,33.783z M145.73,19.457c1.2-1.2,2.76-1.8,4.68-1.8
	s3.5,0.58,4.74,1.74c1.239,1.16,1.899,2.699,1.979,4.619h-13.5C143.829,22.179,144.53,20.657,145.73,19.457z"/>
</svg>
