<?xml version="1.0" encoding="utf-8"?>
<!-- Generator: Adobe Illustrator 16.0.0, SVG Export Plug-In . SVG Version: 6.00 Build 0)  -->
<!DOCTYPE svg PUBLIC "-//W3C//DTD SVG 1.1//EN" "http://www.w3.org/Graphics/SVG/1.1/DTD/svg11.dtd">
<svg version="1.1" id="Layer_1" xmlns="http://www.w3.org/2000/svg" xmlns:xlink="http://www.w3.org/1999/xlink" x="0px" y="0px"
	 width="327.201px" height="51.48px" viewBox="0 0 327.201 51.48" enable-background="new 0 0 327.201 51.48" xml:space="preserve">
<g>
	<g>
		<path fill="none" d="M64.68,20.16c-2.48,0-4.53,0.87-6.149,2.61C56.91,24.509,56.1,26.72,56.1,29.4c0,2.64,0.81,4.81,2.431,6.51
			c1.619,1.7,3.669,2.55,6.149,2.55c2.521,0,4.591-0.85,6.21-2.55c1.62-1.7,2.43-3.87,2.43-6.51c0-2.68-0.82-4.892-2.459-6.63
			C69.22,21.03,67.159,20.16,64.68,20.16z"/>
		<path fill="none" d="M149.219,19.62c-1.92,0-3.479,0.6-4.681,1.8c-1.199,1.2-1.9,2.722-2.1,4.561h13.5
			c-0.08-1.92-0.74-3.459-1.98-4.619C152.718,20.201,151.139,19.62,149.219,19.62z"/>
		<path fill="#FFFFFF" d="M34.14,12.84c-4.199,0-7.301,1.561-9.3,4.682c-1.761-3.121-4.62-4.682-8.58-4.682
			c-1.96,0-3.65,0.432-5.069,1.29C9.77,14.991,8.739,16.04,8.1,17.28v-3.66H0V45h8.28V26.22c0-1.839,0.469-3.288,1.41-4.35
			c0.938-1.06,2.169-1.59,3.689-1.59s2.709,0.5,3.57,1.5c0.859,1,1.289,2.38,1.289,4.14V45h8.28V26.28c0-1.88,0.47-3.35,1.41-4.41
			c0.939-1.06,2.169-1.59,3.69-1.59c1.52,0,2.719,0.53,3.6,1.59c0.879,1.062,1.32,2.511,1.32,4.35V45h8.279V24.3
			c0-3.479-0.91-6.26-2.729-8.34C40.269,13.881,37.62,12.84,34.14,12.84z"/>
		<path fill="#FFFFFF" d="M64.68,12.84c-4.8,0-8.811,1.57-12.03,4.71c-3.22,3.142-4.83,7.091-4.83,11.852
			c0,4.76,1.59,8.68,4.771,11.76c3.181,3.08,7.21,4.62,12.09,4.62c4.92,0,8.97-1.54,12.149-4.62c3.181-3.08,4.771-7,4.771-11.76
			c0-4.72-1.62-8.66-4.86-11.82C73.5,14.421,69.479,12.84,64.68,12.84z M70.89,35.91c-1.619,1.7-3.689,2.55-6.21,2.55
			c-2.48,0-4.53-0.85-6.149-2.55c-1.621-1.7-2.431-3.87-2.431-6.51c0-2.681,0.81-4.892,2.431-6.63c1.619-1.74,3.669-2.61,6.149-2.61
			c2.479,0,4.54,0.87,6.181,2.61c1.639,1.738,2.459,3.949,2.459,6.63C73.319,32.04,72.51,34.21,70.89,35.91z"/>
		<path fill="#FFFFFF" d="M101.339,12.84c-1.881,0-3.561,0.44-5.039,1.32c-1.48,0.88-2.602,1.92-3.361,3.12v-3.66h-8.1V45h8.28
			V26.16c0-1.72,0.51-3.13,1.53-4.229c1.02-1.102,2.369-1.65,4.05-1.65c1.44,0,2.67,0.52,3.69,1.56c1.02,1.041,1.529,2.4,1.529,4.08
			V45h8.28V26.88C112.199,17.521,108.579,12.84,101.339,12.84z"/>
		<path fill="#FFFFFF" d="M126.929,36.96c-0.7-0.76-1.05-2.26-1.05-4.5V20.34h5.88v-6.72h-5.88v-6.6h-8.16v6.6h-3.36v6.72h3.301
			V32.7c0,4.28,0.869,7.47,2.609,9.569c1.74,2.101,4.471,3.149,8.189,3.149c1.521,0,2.701-0.101,3.541-0.3v-7.08
			c-0.441,0.04-0.94,0.061-1.5,0.061C128.819,38.101,127.628,37.722,126.929,36.96z"/>
		<path fill="#FFFFFF" d="M164.34,29.58c0-5.199-1.342-9.29-4.021-12.271c-2.682-2.979-6.42-4.471-11.221-4.471
			c-4.439,0-8.11,1.57-11.01,4.71c-2.9,3.142-4.35,7.091-4.35,11.852c0,4.8,1.509,8.729,4.529,11.79
			c2.47,2.502,5.6,3.964,9.367,4.42l2.469-7.04c-2.205-0.048-4.043-0.71-5.506-2c-1.521-1.34-2.32-3.069-2.4-5.19h22.08
			C164.316,30.98,164.34,30.381,164.34,29.58z M142.438,25.979c0.199-1.839,0.9-3.359,2.1-4.561c1.201-1.2,2.761-1.8,4.681-1.8
			c1.92,0,3.499,0.58,4.739,1.74s1.9,2.699,1.98,4.619L142.438,25.979L142.438,25.979z"/>
	</g>
	<g>
		<path fill="#FFFFFF" d="M176.963,38.602l3.299-2.16c1.721,3.2,4.32,4.8,7.801,4.8c1.639,0,3.01-0.45,4.109-1.35
			c1.1-0.9,1.648-2.109,1.648-3.631c0-1.319-0.539-2.42-1.619-3.3c-1.078-0.88-2.381-1.609-3.898-2.189
			c-1.521-0.579-3.051-1.209-4.59-1.891c-1.541-0.68-2.852-1.681-3.932-3.001c-1.08-1.318-1.621-2.959-1.621-4.919
			c0-2.56,0.951-4.609,2.852-6.149c1.898-1.54,4.291-2.311,7.17-2.311c2.6,0,4.729,0.63,6.391,1.891
			c1.66,1.26,2.75,2.63,3.271,4.109l-3.48,1.98c-1.318-2.68-3.479-4.021-6.479-4.021c-1.48,0-2.711,0.391-3.689,1.17
			c-0.98,0.78-1.471,1.83-1.471,3.15c0,1.281,0.539,2.351,1.619,3.21c1.08,0.861,2.391,1.57,3.93,2.13
			c1.541,0.562,3.08,1.17,4.621,1.83c1.539,0.66,2.85,1.671,3.93,3.03s1.621,3.04,1.621,5.04c0,2.721-1.002,4.939-3,6.66
			c-2.002,1.72-4.541,2.579-7.621,2.579C182.66,45.261,179.041,43.04,176.963,38.602z"/>
		<path fill="#FFFFFF" d="M203.182,13.28V6.74h4.74v6.54h6.84v4.02h-6.84v16.081c0,2.801,0.43,4.7,1.291,5.699
			c0.857,1.001,2.348,1.5,4.469,1.5l1.32-0.06v4.199c-0.842,0.12-1.801,0.181-2.881,0.181c-5.961,0-8.939-3.699-8.939-11.101V17.3
			h-3.66v-4.02H203.182z"/>
		<path fill="#FFFFFF" d="M229.762,45.261c-3.521,0-6.24-1.159-8.16-3.479c-1.92-2.319-2.881-5.319-2.881-9v-19.5h4.74v19.681
			c0,2.439,0.689,4.38,2.068,5.819c1.381,1.44,3.15,2.16,5.313,2.16c2.398,0,4.35-0.811,5.85-2.431c1.5-1.619,2.25-3.71,2.25-6.271
			V13.28h4.801v31.2h-4.74v-4.5c-0.76,1.479-1.98,2.729-3.66,3.75C233.662,44.75,231.801,45.261,229.762,45.261z"/>
		<path fill="#FFFFFF" d="M278.66,1.102v43.38h-4.619v-4.92c-2.602,3.801-6.199,5.699-10.801,5.699
			c-4.479,0-8.141-1.529-10.979-4.59c-2.84-3.061-4.26-6.97-4.26-11.729c0-4.839,1.379-8.79,4.141-11.851
			c2.76-3.06,6.338-4.59,10.738-4.59c2.84,0,5.201,0.65,7.08,1.95c1.881,1.3,3.182,2.59,3.898,3.87V1.102H278.66z M274.041,29
			c0-3.759-1.012-6.729-3.029-8.91c-2.021-2.18-4.551-3.27-7.59-3.27c-3.08,0-5.609,1.14-7.59,3.42s-2.973,5.201-2.973,8.76
			c0,3.563,1.012,6.45,3.031,8.671S260.439,41,263.48,41c3.199,0,5.76-1.159,7.682-3.479C273.082,35.201,274.041,32.36,274.041,29z"
			/>
		<path fill="#FFFFFF" d="M284.422,5.24c0-0.879,0.309-1.64,0.93-2.28C285.971,2.321,286.74,2,287.66,2
			c0.922,0,1.699,0.311,2.342,0.931c0.639,0.62,0.961,1.39,0.961,2.31c0,0.921-0.322,1.701-0.961,2.34
			c-0.643,0.64-1.42,0.96-2.342,0.96c-0.92,0-1.689-0.32-2.311-0.96C284.73,6.941,284.422,6.161,284.422,5.24z M285.32,44.48v-31.2
			h4.74v31.2H285.32z"/>
		<path fill="#FFFFFF" d="M299.24,40.61c-3.08-3.101-4.621-7.01-4.621-11.729c0-4.719,1.553-8.63,4.65-11.729
			c3.1-3.1,6.99-4.65,11.67-4.65c4.682,0,8.561,1.561,11.643,4.681c3.078,3.119,4.619,7.02,4.619,11.699
			c0,4.681-1.553,8.58-4.65,11.699c-3.1,3.12-6.99,4.681-11.67,4.681C306.199,45.261,302.32,43.711,299.24,40.61z M299.48,28.881
			c0,3.521,1.07,6.41,3.211,8.67c2.141,2.261,4.869,3.391,8.189,3.391c3.361,0,6.121-1.141,8.281-3.42
			c2.16-2.28,3.238-5.16,3.238-8.641c0-3.479-1.078-6.359-3.238-8.641c-2.16-2.28-4.92-3.42-8.281-3.42
			c-3.32,0-6.051,1.15-8.189,3.45C300.551,22.571,299.48,25.441,299.48,28.881z"/>
	</g>
	<g>
		<path fill="#AD9571" d="M153.022,51.48L171.143,0h5.82l-18.12,51.48H153.022z"/>
	</g>
</g>
</svg>
