<?xml version="1.0" encoding="utf-8"?>
<!-- Generator: Adobe Illustrator 16.0.0, SVG Export Plug-In . SVG Version: 6.00 Build 0)  -->
<!DOCTYPE svg PUBLIC "-//W3C//DTD SVG 1.1//EN" "http://www.w3.org/Graphics/SVG/1.1/DTD/svg11.dtd">
<svg version="1.1" id="Layer_1" xmlns="http://www.w3.org/2000/svg" xmlns:xlink="http://www.w3.org/1999/xlink" x="0px" y="0px"
	 width="325.319px" height="51.48px" viewBox="0 0 325.319 51.48" enable-background="new 0 0 325.319 51.48" xml:space="preserve">
<g>
	<g>
		<path fill="none" d="M64.68,20.16c-2.48,0-4.53,0.87-6.149,2.61c-1.621,1.739-2.431,3.95-2.431,6.63c0,2.64,0.81,4.81,2.431,6.51
			c1.619,1.7,3.669,2.55,6.149,2.55c2.521,0,4.591-0.85,6.21-2.55c1.62-1.7,2.43-3.87,2.43-6.51c0-2.68-0.82-4.891-2.459-6.63
			C69.22,21.03,67.159,20.16,64.68,20.16z"/>
		<path fill="none" d="M149.219,19.62c-1.92,0-3.479,0.6-4.681,1.8c-1.199,1.2-1.9,2.721-2.1,4.56h13.5
			c-0.08-1.92-0.74-3.459-1.98-4.619S151.139,19.62,149.219,19.62z"/>
		<path fill="#FFFFFF" d="M34.14,12.84c-4.199,0-7.301,1.56-9.3,4.681c-1.761-3.121-4.62-4.681-8.58-4.681
			c-1.96,0-3.65,0.431-5.069,1.29C9.77,14.991,8.739,16.04,8.1,17.28v-3.66H0V45h8.28V26.22c0-1.839,0.469-3.289,1.41-4.35
			c0.938-1.06,2.169-1.59,3.689-1.59c1.52,0,2.709,0.5,3.57,1.5c0.859,1,1.289,2.38,1.289,4.14V45h8.28V26.28
			c0-1.88,0.47-3.35,1.41-4.41c0.939-1.06,2.169-1.59,3.69-1.59c1.52,0,2.719,0.53,3.6,1.59c0.879,1.061,1.32,2.511,1.32,4.35V45
			h8.279V24.3c0-3.48-0.91-6.26-2.729-8.34C40.269,13.881,37.62,12.84,34.14,12.84z"/>
		<path fill="#FFFFFF" d="M64.68,12.84c-4.8,0-8.811,1.57-12.03,4.71c-3.22,3.141-4.83,7.09-4.83,11.851
			c0,4.76,1.59,8.68,4.771,11.76s7.21,4.62,12.09,4.62c4.92,0,8.97-1.54,12.149-4.62c3.181-3.08,4.771-7,4.771-11.76
			c0-4.72-1.62-8.66-4.86-11.82C73.5,14.421,69.479,12.84,64.68,12.84z M70.89,35.91c-1.619,1.7-3.689,2.55-6.21,2.55
			c-2.48,0-4.53-0.85-6.149-2.55c-1.621-1.7-2.431-3.87-2.431-6.51c0-2.68,0.81-4.891,2.431-6.63c1.619-1.74,3.669-2.61,6.149-2.61
			c2.479,0,4.54,0.87,6.181,2.61c1.639,1.739,2.459,3.95,2.459,6.63C73.319,32.04,72.51,34.21,70.89,35.91z"/>
		<path fill="#FFFFFF" d="M101.339,12.84c-1.881,0-3.561,0.44-5.039,1.32c-1.48,0.88-2.602,1.92-3.361,3.12v-3.66h-8.1V45h8.28
			V26.16c0-1.72,0.51-3.13,1.53-4.229c1.02-1.101,2.369-1.65,4.05-1.65c1.44,0,2.67,0.52,3.69,1.56c1.02,1.041,1.529,2.4,1.529,4.08
			V45h8.28V26.88C112.199,17.521,108.579,12.84,101.339,12.84z"/>
		<path fill="#FFFFFF" d="M126.929,36.96c-0.7-0.76-1.05-2.26-1.05-4.5V20.34h5.88v-6.72h-5.88v-6.6h-8.16v6.6h-3.36v6.72h3.301
			V32.7c0,4.28,0.869,7.47,2.609,9.569c1.74,2.101,4.471,3.15,8.189,3.15c1.521,0,2.701-0.101,3.541-0.3v-7.08
			c-0.441,0.04-0.94,0.06-1.5,0.06C128.819,38.1,127.628,37.721,126.929,36.96z"/>
		<path fill="#FFFFFF" d="M164.339,29.58c0-5.199-1.341-9.29-4.02-12.271c-2.682-2.979-6.42-4.47-11.221-4.47
			c-4.439,0-8.11,1.57-11.01,4.71c-2.9,3.141-4.35,7.09-4.35,11.851c0,4.8,1.509,8.729,4.529,11.79c2.47,2.502,5.6,3.964,9.367,4.42
			l2.469-7.04c-2.205-0.048-4.043-0.71-5.506-2c-1.521-1.34-2.32-3.069-2.4-5.19h22.08C164.317,30.98,164.339,30.381,164.339,29.58z
			 M142.438,25.979c0.199-1.839,0.9-3.359,2.1-4.56c1.201-1.2,2.761-1.8,4.681-1.8s3.499,0.58,4.739,1.74s1.9,2.699,1.98,4.619
			H142.438z"/>
	</g>
	<g>
		<path fill="#AD9571" d="M152.78,51.48L170.96,0h4.381L157.16,51.48H152.78z"/>
	</g>
	<g>
		<path fill="#FFFFFF" d="M175.081,38.601l3.3-2.16c1.72,3.2,4.319,4.8,7.8,4.8c1.64,0,3.01-0.45,4.11-1.35
			c1.1-0.9,1.649-2.109,1.649-3.63c0-1.32-0.539-2.42-1.619-3.3s-2.381-1.61-3.9-2.19c-1.521-0.579-3.051-1.209-4.59-1.89
			c-1.541-0.68-2.85-1.681-3.93-3.001c-1.08-1.319-1.621-2.959-1.621-4.919c0-2.56,0.95-4.61,2.851-6.15
			c1.899-1.54,4.29-2.31,7.17-2.31c2.6,0,4.729,0.63,6.39,1.89c1.66,1.26,2.75,2.63,3.271,4.11l-3.479,1.98
			c-1.32-2.679-3.48-4.02-6.48-4.02c-1.48,0-2.711,0.39-3.689,1.17c-0.981,0.78-1.471,1.83-1.471,3.15c0,1.281,0.54,2.351,1.62,3.21
			c1.08,0.861,2.39,1.57,3.93,2.13c1.54,0.561,3.08,1.17,4.62,1.83c1.539,0.66,2.85,1.671,3.93,3.03
			c1.08,1.36,1.621,3.04,1.621,5.04c0,2.721-1.001,4.94-3,6.66c-2.002,1.72-4.541,2.58-7.621,2.58
			C180.78,45.261,177.16,43.04,175.081,38.601z"/>
		<path fill="#FFFFFF" d="M201.3,13.28V6.74h4.74v6.54h6.84v4.02h-6.84v16.081c0,2.8,0.43,4.7,1.291,5.699
			c0.859,1.001,2.349,1.5,4.469,1.5l1.32-0.06v4.2c-0.84,0.12-1.8,0.18-2.88,0.18c-5.96,0-8.94-3.699-8.94-11.1V17.3h-3.66v-4.02
			H201.3z"/>
		<path fill="#FFFFFF" d="M227.88,45.261c-3.52,0-6.24-1.16-8.16-3.48c-1.92-2.319-2.88-5.319-2.88-9v-19.5h4.74v19.681
			c0,2.439,0.69,4.38,2.069,5.819c1.381,1.44,3.15,2.16,5.311,2.16c2.4,0,4.35-0.81,5.85-2.43s2.25-3.71,2.25-6.271V13.28h4.801
			v31.2h-4.74v-4.5c-0.76,1.48-1.98,2.73-3.66,3.75S229.92,45.261,227.88,45.261z"/>
		<path fill="#FFFFFF" d="M276.78,1.101v43.38h-4.62v-4.92c-2.601,3.801-6.2,5.7-10.8,5.7c-4.48,0-8.141-1.53-10.98-4.59
			c-2.84-3.061-4.26-6.97-4.26-11.73c0-4.839,1.38-8.79,4.141-11.85c2.76-3.06,6.339-4.59,10.739-4.59c2.84,0,5.2,0.65,7.08,1.95
			c1.88,1.3,3.181,2.59,3.899,3.87V1.101H276.78z M272.16,29c0-3.759-1.011-6.729-3.03-8.91c-2.02-2.18-4.551-3.27-7.59-3.27
			c-3.08,0-5.609,1.14-7.59,3.42c-1.98,2.28-2.971,5.201-2.971,8.76c0,3.562,1.01,6.45,3.031,8.671
			c2.019,2.22,4.549,3.329,7.59,3.329c3.199,0,5.76-1.159,7.68-3.479C271.2,35.201,272.16,32.36,272.16,29z"/>
		<path fill="#FFFFFF" d="M282.54,5.24c0-0.879,0.31-1.64,0.93-2.28C284.09,2.321,284.86,2,285.78,2s1.699,0.31,2.34,0.93
			c0.64,0.621,0.961,1.39,0.961,2.31c0,0.921-0.321,1.701-0.961,2.34c-0.641,0.64-1.42,0.96-2.34,0.96s-1.69-0.32-2.311-0.96
			C282.85,6.941,282.54,6.161,282.54,5.24z M283.44,44.48v-31.2h4.74v31.2H283.44z"/>
		<path fill="#FFFFFF" d="M297.36,40.61c-3.081-3.1-4.621-7.01-4.621-11.729s1.551-8.63,4.65-11.73c3.1-3.099,6.99-4.65,11.67-4.65
			s8.56,1.56,11.641,4.68c3.079,3.12,4.619,7.02,4.619,11.7c0,4.68-1.551,8.58-4.649,11.699c-3.101,3.12-6.99,4.681-11.67,4.681
			C304.319,45.261,300.439,43.711,297.36,40.61z M297.6,28.881c0,3.52,1.069,6.41,3.21,8.67c2.14,2.26,4.869,3.39,8.19,3.39
			c3.36,0,6.12-1.14,8.28-3.42s3.239-5.16,3.239-8.64c0-3.48-1.079-6.36-3.239-8.641c-2.16-2.28-4.92-3.42-8.28-3.42
			c-3.321,0-6.051,1.15-8.19,3.45C298.669,22.571,297.6,25.441,297.6,28.881z"/>
	</g>
</g>
</svg>
