<?xml version="1.0" encoding="utf-8"?>
<!-- Generator: Adobe Illustrator 16.0.0, SVG Export Plug-In . SVG Version: 6.00 Build 0)  -->
<!DOCTYPE svg PUBLIC "-//W3C//DTD SVG 1.1//EN" "http://www.w3.org/Graphics/SVG/1.1/DTD/svg11.dtd">
<svg version="1.1" id="Layer_1" xmlns="http://www.w3.org/2000/svg" xmlns:xlink="http://www.w3.org/1999/xlink" x="0px" y="0px"
	 width="331.918px" height="51.48px" viewBox="0 0 331.918 51.48" enable-background="new 0 0 331.918 51.48" xml:space="preserve">
<path fill="#FFFFFF" d="M44.82,24.3V45h-8.28v-18.78c0-1.839-0.44-3.288-1.32-4.35c-0.88-1.06-2.08-1.59-3.6-1.59
	c-1.521,0-2.75,0.53-3.69,1.59c-0.94,1.062-1.41,2.53-1.41,4.41V45h-8.28V25.92c0-1.76-0.43-3.14-1.29-4.14
	c-0.86-1-2.05-1.5-3.57-1.5c-1.521,0-2.751,0.53-3.69,1.59c-0.94,1.062-1.41,2.511-1.41,4.35V45H0V13.62h8.1v3.66
	c0.64-1.239,1.67-2.29,3.09-3.15c1.419-0.858,3.109-1.29,5.07-1.29c3.96,0,6.819,1.562,8.58,4.681c2-3.119,5.1-4.681,9.3-4.681
	c3.48,0,6.129,1.041,7.95,3.12C43.91,18.04,44.82,20.82,44.82,24.3z"/>
<path fill="#FFFFFF" d="M52.59,41.16c-3.18-3.08-4.77-7-4.77-11.76s1.61-8.71,4.83-11.852c3.219-3.14,7.23-4.71,12.03-4.71
	c4.8,0,8.82,1.581,12.06,4.74c3.24,3.16,4.86,7.102,4.86,11.82c0,4.76-1.59,8.68-4.77,11.76c-3.18,3.08-7.23,4.62-12.15,4.62
	C59.799,45.78,55.77,44.24,52.59,41.16z M56.1,29.4c0,2.64,0.81,4.81,2.43,6.51c1.62,1.7,3.669,2.55,6.15,2.55
	c2.52,0,4.59-0.85,6.21-2.55c1.62-1.7,2.43-3.87,2.43-6.51c0-2.681-0.82-4.892-2.46-6.631c-1.641-1.739-3.7-2.609-6.18-2.609
	s-4.53,0.87-6.15,2.609C56.91,24.51,56.1,26.721,56.1,29.4z"/>
<path fill="#FFFFFF" d="M101.079,12.84c7.239,0,10.86,4.681,10.86,14.04V45h-8.28V25.92c0-1.68-0.51-3.039-1.53-4.08
	c-1.02-1.039-2.25-1.56-3.69-1.56c-1.68,0-3.03,0.55-4.05,1.649c-1.02,1.101-1.53,2.511-1.53,4.229V45h-8.28V13.62h8.1v3.66
	c0.76-1.2,1.88-2.24,3.36-3.12C97.518,13.28,99.198,12.84,101.079,12.84z"/>
<path fill="#FFFFFF" d="M117.297,13.62v-6.6h8.16v6.601h5.88v6.72h-5.88v12.12c0,2.24,0.35,3.74,1.051,4.5
	c0.699,0.762,1.89,1.141,3.569,1.141c0.56,0,1.06-0.021,1.5-0.061v7.08c-0.84,0.199-2.021,0.3-3.54,0.3
	c-3.72,0-6.45-1.05-8.19-3.149c-1.74-2.101-2.61-5.289-2.61-9.569V20.34h-3.3v-6.72H117.297z"/>
<path fill="#FFFFFF" d="M132.791,29.4c0-4.76,1.45-8.71,4.351-11.852c2.899-3.14,6.57-4.71,11.01-4.71c4.8,0,8.54,1.491,11.22,4.471
	c2.68,2.979,4.021,7.07,4.021,12.271c0,0.801-0.021,1.4-0.061,1.8h-22.08c0.08,2.121,0.88,3.852,2.4,5.19
	c1.52,1.34,3.439,2.01,5.76,2.01c3.32,0,5.859-1.279,7.62-3.84l5.46,4.14c-0.88,1.602-2.44,3.15-4.68,4.65
	c-2.24,1.5-5.08,2.25-8.521,2.25c-4.96,0-8.95-1.53-11.97-4.59C134.301,38.13,132.791,34.2,132.791,29.4z M141.491,25.98h13.5
	c-0.08-1.921-0.74-3.46-1.979-4.62c-1.24-1.16-2.82-1.74-4.74-1.74s-3.48,0.6-4.68,1.8C142.392,22.62,141.691,24.141,141.491,25.98z
	"/>
<path fill="#FFFFFF" d="M187.012,39.12l3.299-2.16c1.72,3.2,4.32,4.8,7.801,4.8c1.639,0,3.01-0.449,4.109-1.35s1.65-2.109,1.65-3.63
	c0-1.32-0.541-2.42-1.621-3.3s-2.379-1.61-3.898-2.19c-1.521-0.579-3.051-1.209-4.59-1.89c-1.541-0.681-2.852-1.682-3.932-3
	c-1.08-1.32-1.619-2.96-1.619-4.92c0-2.561,0.949-4.61,2.85-6.15c1.9-1.539,4.291-2.311,7.17-2.311c2.6,0,4.73,0.631,6.391,1.891
	c1.659,1.26,2.75,2.631,3.271,4.109L204.413,21c-1.32-2.68-3.479-4.02-6.479-4.02c-1.479,0-2.711,0.39-3.69,1.17
	c-0.98,0.779-1.47,1.83-1.47,3.148c0,1.281,0.539,2.352,1.619,3.21c1.08,0.861,2.392,1.57,3.93,2.131
	c1.54,0.561,3.08,1.17,4.621,1.829c1.539,0.66,2.851,1.672,3.931,3.03c1.08,1.36,1.619,3.04,1.619,5.04c0,2.721-1,4.94-3,6.66
	s-4.539,2.58-7.619,2.58C192.711,45.78,189.09,43.56,187.012,39.12z"/>
<path fill="#FFFFFF" d="M213.075,13.8V7.26h4.74v6.54h6.84v4.021h-6.84V33.9c0,2.8,0.43,4.7,1.29,5.699
	c0.858,1.001,2.349,1.5,4.47,1.5l1.32-0.061v4.2c-0.84,0.12-1.801,0.18-2.881,0.18c-5.96,0-8.939-3.699-8.939-11.1v-16.5h-3.66V13.8
	H213.075z"/>
<path fill="#FFFFFF" d="M238.69,45.78c-3.521,0-6.24-1.16-8.16-3.48c-1.92-2.318-2.881-5.318-2.881-9V13.8h4.74V33.48
	c0,2.438,0.689,4.38,2.07,5.818c1.381,1.44,3.149,2.16,5.311,2.16c2.398,0,4.35-0.81,5.85-2.43s2.25-3.71,2.25-6.271V13.8h4.801V45
	h-4.739v-4.5c-0.761,1.48-1.979,2.73-3.66,3.75C242.59,45.27,240.729,45.78,238.69,45.78z"/>
<path fill="#FFFFFF" d="M286.309,1.62V45h-4.621v-4.92c-2.6,3.801-6.2,5.7-10.799,5.7c-4.48,0-8.141-1.53-10.98-4.59
	c-2.841-3.062-4.26-6.971-4.26-11.73c0-4.839,1.379-8.79,4.141-11.85c2.76-3.062,6.338-4.591,10.738-4.591
	c2.84,0,5.2,0.65,7.08,1.949c1.881,1.302,3.182,2.592,3.9,3.87V1.62H286.309z M281.688,29.52c0-3.76-1.01-6.729-3.029-8.909
	c-2.021-2.18-4.551-3.271-7.59-3.271c-3.081,0-5.609,1.142-7.59,3.42c-1.98,2.28-2.971,5.2-2.971,8.761
	c0,3.562,1.01,6.449,3.029,8.671c2.02,2.22,4.551,3.329,7.59,3.329c3.201,0,5.762-1.159,7.682-3.479
	C280.729,35.721,281.688,32.88,281.688,29.52z"/>
<path fill="#FFFFFF" d="M290.018,5.749c0-0.879,0.309-1.64,0.93-2.279c0.619-0.64,1.391-0.961,2.311-0.961
	c0.921,0,1.699,0.312,2.341,0.932c0.639,0.62,0.96,1.39,0.96,2.31c0,0.921-0.321,1.701-0.96,2.34c-0.642,0.642-1.42,0.96-2.341,0.96
	c-0.92,0-1.69-0.318-2.311-0.96C290.327,7.45,290.018,6.67,290.018,5.749z M290.918,44.989v-31.2h4.738v31.2H290.918z"/>
<path fill="#FFFFFF" d="M303.959,41.13c-3.082-3.1-4.621-7.01-4.621-11.729c0-4.72,1.551-8.63,4.65-11.731
	c3.1-3.1,6.99-4.649,11.67-4.649s8.559,1.561,11.641,4.681c3.078,3.12,4.619,7.021,4.619,11.701c0,4.68-1.551,8.58-4.65,11.699
	c-3.098,3.118-6.988,4.68-11.67,4.68C310.918,45.781,307.04,44.231,303.959,41.13z M304.2,29.401c0,3.52,1.069,6.41,3.211,8.67
	c2.139,2.26,4.869,3.389,8.188,3.389c3.359,0,6.121-1.139,8.279-3.42c2.16-2.279,3.24-5.16,3.24-8.639
	c0-3.481-1.08-6.361-3.24-8.642c-2.158-2.278-4.92-3.42-8.279-3.42c-3.318,0-6.051,1.15-8.188,3.45
	C305.269,23.091,304.2,25.96,304.2,29.401z"/>
<path fill="#AD9571" d="M163.072,51.48L181.192,0h5.82l-18.12,51.48H163.072z"/>
</svg>
