<?xml version="1.0" encoding="utf-8"?>
<!-- Generator: Adobe Illustrator 16.0.0, SVG Export Plug-In . SVG Version: 6.00 Build 0)  -->
<!DOCTYPE svg PUBLIC "-//W3C//DTD SVG 1.1//EN" "http://www.w3.org/Graphics/SVG/1.1/DTD/svg11.dtd">
<svg version="1.1" id="Layer_1" xmlns="http://www.w3.org/2000/svg" xmlns:xlink="http://www.w3.org/1999/xlink" x="0px" y="0px"
	 width="327.14px" height="44.158px" viewBox="2.308 0 327.14 44.158" enable-background="new 2.308 0 327.14 44.158"
	 xml:space="preserve">
<path fill="#FFFFFF" d="M184.541,37.5l3.299-2.16c1.722,3.2,4.32,4.8,7.802,4.8c1.639,0,3.01-0.447,4.108-1.35
	c1.101-0.901,1.649-2.109,1.649-3.631c0-1.319-0.541-2.42-1.621-3.299c-1.079-0.881-2.379-1.61-3.897-2.19
	c-1.521-0.579-3.051-1.209-4.59-1.89c-1.541-0.683-2.853-1.684-3.933-3c-1.08-1.32-1.619-2.961-1.619-4.92
	c0-2.562,0.949-4.61,2.851-6.15c1.899-1.539,4.291-2.311,7.17-2.311c2.601,0,4.729,0.631,6.392,1.891
	c1.66,1.26,2.75,2.631,3.271,4.109l-3.479,1.98c-1.32-2.68-3.479-4.02-6.479-4.02c-1.479,0-2.711,0.39-3.688,1.17
	c-0.98,0.779-1.471,1.83-1.471,3.147c0,1.281,0.538,2.353,1.618,3.21c1.08,0.861,2.394,1.57,3.931,2.133
	c1.541,0.561,3.08,1.17,4.621,1.827c1.539,0.66,2.852,1.673,3.932,3.03c1.08,1.359,1.619,3.04,1.619,5.04c0,2.721-1,4.94-3,6.659
	c-2,1.721-4.539,2.58-7.619,2.58C190.24,44.159,186.619,41.94,184.541,37.5z"/>
<path fill="#FFFFFF" d="M210.604,12.18V5.64h4.738v6.54h6.84v4.021h-6.84v16.08c0,2.8,0.432,4.699,1.291,5.699
	c0.857,1,2.35,1.5,4.471,1.5l1.318-0.063v4.199c-0.84,0.121-1.801,0.181-2.881,0.181c-5.959,0-8.938-3.699-8.938-11.101v-16.5h-3.66
	v-4.019h3.66V12.18z"/>
<path fill="#FFFFFF" d="M236.219,44.159c-3.521,0-6.239-1.159-8.159-3.479c-1.92-2.317-2.881-5.317-2.881-9v-19.5h4.739V31.86
	c0,2.438,0.688,4.381,2.069,5.817c1.382,1.44,3.148,2.16,5.312,2.16c2.397,0,4.351-0.81,5.851-2.431
	c1.5-1.619,2.25-3.709,2.25-6.271V12.18h4.802v31.2h-4.739v-4.5c-0.761,1.48-1.979,2.73-3.66,3.75
	C240.119,43.649,238.258,44.159,236.219,44.159z"/>
<path fill="#FFFFFF" d="M283.838,0v43.38h-4.621v-4.92c-2.6,3.801-6.198,5.699-10.799,5.699c-4.479,0-8.142-1.529-10.979-4.59
	c-2.84-3.063-4.26-6.972-4.26-11.729c0-4.839,1.379-8.79,4.141-11.85c2.761-3.063,6.339-4.591,10.738-4.591
	c2.84,0,5.2,0.649,7.08,1.948c1.881,1.303,3.182,2.593,3.899,3.87V0H283.838z M279.217,27.899c0-3.761-1.01-6.729-3.028-8.909
	c-2.021-2.18-4.551-3.271-7.59-3.271c-3.08,0-5.608,1.143-7.591,3.42c-1.979,2.28-2.971,5.2-2.971,8.762
	c0,3.563,1.01,6.448,3.028,8.672c2.021,2.22,4.552,3.328,7.59,3.328c3.201,0,5.763-1.158,7.683-3.479S279.217,31.26,279.217,27.899z
	"/>
<path fill="#FFFFFF" d="M287.547,4.129c0-0.879,0.31-1.64,0.931-2.279c0.619-0.64,1.392-0.961,2.312-0.961
	c0.921,0,1.698,0.313,2.341,0.933c0.641,0.62,0.961,1.39,0.961,2.31c0,0.921-0.322,1.701-0.961,2.34
	c-0.643,0.643-1.42,0.96-2.341,0.96c-0.92,0-1.69-0.317-2.312-0.96C287.856,5.83,287.547,5.05,287.547,4.129z M288.446,43.368
	V12.169h4.738v31.199H288.446z"/>
<path fill="#FFFFFF" d="M301.487,39.51c-3.081-3.101-4.62-7.01-4.62-11.729c0-4.719,1.551-8.629,4.649-11.73
	c3.101-3.1,6.989-4.648,11.671-4.648c4.68,0,8.559,1.561,11.641,4.681c3.078,3.12,4.619,7.021,4.619,11.701s-1.551,8.58-4.65,11.699
	c-3.098,3.116-6.987,4.68-11.67,4.68C308.447,44.161,304.569,42.61,301.487,39.51z M301.729,27.78c0,3.521,1.068,6.41,3.211,8.67
	c2.139,2.261,4.868,3.39,8.188,3.39c3.359,0,6.121-1.14,8.279-3.42c2.16-2.279,3.239-5.16,3.239-8.64c0-3.48-1.079-6.36-3.239-8.643
	c-2.158-2.277-4.92-3.42-8.279-3.42c-3.317,0-6.051,1.15-8.188,3.45C302.799,21.471,301.729,24.34,301.729,27.78z"/>
<polygon fill="#AD9571" points="178.722,5.401 165.078,44.161 170.897,44.161 184.541,5.401 "/>
<path fill="#FFFFFF" d="M47.127,23.024v20.701h-8.279V24.946c0-1.84-0.44-3.289-1.32-4.351c-0.88-1.059-2.08-1.59-3.6-1.59
	c-1.521,0-2.75,0.531-3.69,1.59c-0.939,1.062-1.41,2.529-1.41,4.412v18.719h-8.279v-19.08c0-1.76-0.431-3.14-1.29-4.14
	c-0.86-1-2.051-1.5-3.57-1.5c-1.521,0-2.751,0.531-3.69,1.59c-0.939,1.062-1.41,2.511-1.41,4.351v18.779H2.308v-31.38h8.1v3.66
	c0.641-1.238,1.67-2.289,3.09-3.15c1.419-0.855,3.109-1.289,5.07-1.289c3.96,0,6.819,1.563,8.58,4.682c2-3.119,5.1-4.682,9.3-4.682
	c3.48,0,6.129,1.041,7.95,3.119C46.218,16.765,47.127,19.546,47.127,23.024z"/>
<path fill="#FFFFFF" d="M102.553,11.4c7.238,0,10.859,4.682,10.859,14.041V43.56h-8.279v-19.08c0-1.68-0.51-3.039-1.529-4.08
	c-1.021-1.039-2.25-1.561-3.691-1.561c-1.68,0-3.029,0.551-4.05,1.65c-1.02,1.099-1.53,2.509-1.53,4.228V43.56h-8.279v-31.38h8.1
	v3.66c0.76-1.199,1.88-2.24,3.36-3.119C98.992,11.839,100.672,11.4,102.553,11.4z"/>
<path fill="#FFFFFF" d="M118.771,12.179V5.58h8.16v6.601h5.879V18.9h-5.879v12.121c0,2.24,0.35,3.74,1.051,4.5
	c0.699,0.764,1.889,1.143,3.568,1.143c0.561,0,1.061-0.021,1.5-0.063v7.08c-0.84,0.199-2.021,0.301-3.539,0.301
	c-3.721,0-6.451-1.051-8.191-3.148c-1.74-2.102-2.609-5.289-2.609-9.568V18.9h-3.301v-6.721H118.771z"/>
<path fill="#FFFFFF" d="M66.569,11.402c-9.09,0-16.458,7.369-16.458,16.458c0,9.09,7.369,16.459,16.458,16.459
	S83.027,36.95,83.027,27.86C83.027,18.771,75.659,11.402,66.569,11.402z M66.569,37.114c-5.111,0-9.254-4.143-9.254-9.254
	s4.143-9.253,9.254-9.253s9.254,4.142,9.254,9.253S71.68,37.114,66.569,37.114z"/>
<g>
	<path fill="#FFFFFF" d="M158.99,37.142h-8.267V37.14c-3.831,0-7.11-2.332-8.515-5.652h8.515h10.257l4.098-11.639
		c-2.818-5.022-8.186-8.421-14.354-8.421c-9.09,0-16.458,7.369-16.458,16.458c0,9.09,7.368,16.459,16.458,16.459h5.731
		L158.99,37.142z M150.724,18.632c3.833,0,7.116,2.332,8.521,5.652h-17.043C143.607,20.964,146.891,18.632,150.724,18.632z"/>
</g>
</svg>
